<svg width="236" height="262" viewBox="0 0 236 262" fill="none" xmlns="http://www.w3.org/2000/svg">
<path d="M78.6673 0L0.520813 94.8165L116.177 231.312L193.281 140.663L78.6673 0Z" fill="white"/>
<path opacity="0.1" d="M78.6673 0L0.520813 94.8165L116.177 231.312L193.281 140.663L78.6673 0Z" fill="white"/>
<path d="M3.64685 95.8588C5.37537 92.7474 7.51893 89.8851 10.0184 87.351L81.7928 14.5869C81.7928 14.5869 106.799 10.4191 112.01 22.9225L20.318 97.9428L3.64685 95.8588Z" fill="#1F2937"/>
<path d="M0 94.2962L106.278 256.839C106.278 256.839 116.698 264.134 127.117 259.965L236 186.509L120.345 11.4612L16.1502 92.7327L0 94.2962Z" fill="white"/>
</svg>
