<svg width="319" height="353" viewBox="0 0 319 353" fill="none" xmlns="http://www.w3.org/2000/svg">
<g clip-path="url(#clip0)">
<path d="M106.418 0L0.70459 128.264L157.16 312.909L261.463 190.283L106.418 0Z" fill="#6C63FF"/>
<path opacity="0.1" d="M106.418 0L0.70459 128.264L157.16 312.909L261.463 190.283L106.418 0Z" fill="black"/>
<path d="M4.93323 129.674C7.27154 125.465 10.1712 121.593 13.5524 118.165L110.646 19.7326C110.646 19.7326 144.474 14.0946 151.522 31.0086L27.4853 132.493L4.93323 129.674Z" fill="#F2F2F2"/>
<path d="M0 127.56L143.769 347.442C143.769 347.442 157.864 357.309 171.959 351.671L319.252 252.301L162.798 15.5042L21.8473 125.445L0 127.56Z" fill="#6C63FF"/>
<path d="M145.221 49.819L55.0051 114.646L56.3381 116.501L146.554 51.674L145.221 49.819Z" fill="#3F3D56"/>
<path d="M53.8092 138.91L51.9038 140.17L170.302 319.178L172.208 317.917L53.8092 138.91Z" fill="#3F3D56"/>
<path d="M280.508 252.776L184.683 323.279L186.037 325.12L281.862 254.616L280.508 252.776Z" fill="#3F3D56"/>
<path d="M162.326 52.9088L160.451 54.2134L283.078 230.401L284.952 229.096L162.326 52.9088Z" fill="#3F3D56"/>
<path d="M124.448 18.3355L12.9141 120.698L13.8666 121.736L125.4 19.3733L124.448 18.3355Z" fill="#3F3D56"/>
<path d="M133.739 19.2129L17.1716 122.12L18.1049 123.177L134.672 20.2701L133.739 19.2129Z" fill="#3F3D56"/>
<path d="M141.03 21.2638L20.0231 122.129L20.926 123.212L141.933 22.3471L141.03 21.2638Z" fill="#3F3D56"/>
</g>
<defs>
<clipPath id="clip0">
<rect width="319" height="353" fill="white"/>
</clipPath>
</defs>
</svg>