<svg viewBox="0 0 642 98" fill="currentColor" xmlns="http://www.w3.org/2000/svg">
  <path
    d="M1.264 88.064L0.240001 13.184C0.240001 7.72266 11.2907 4.992 33.392 4.992C43.8027 4.992 52.5067 6.95466 59.504 10.88C66.5867 14.8053 70.128 20.4373 70.128 27.776C70.128 32.64 68.2507 37.248 64.496 41.6C60.7413 45.952 56.5173 48.7253 51.824 49.92C57.712 51.712 62.7893 54.3147 67.056 57.728C71.408 61.1413 73.584 65.5787 73.584 71.04C73.584 76.5013 71.2373 81.3227 66.544 85.504C57.4987 93.44 43.5893 97.408 24.816 97.408C9.11467 97.408 1.264 94.2933 1.264 88.064ZM9.584 50.304C14.8747 48.256 20.72 47.232 27.12 47.232C30.1067 47.232 33.0933 47.232 36.08 47.232C40.6027 47.232 46.064 45.2267 52.464 41.216C58.9493 37.12 62.192 33.2373 62.192 29.568C62.192 24.1067 58.7787 19.7973 51.952 16.64C45.1253 13.3973 37.5733 11.776 29.296 11.776C21.0187 11.776 14.32 12.7147 9.2 14.592C9.2 16.128 9.2 18.3893 9.2 21.376C9.2 24.2773 9.24267 29.1413 9.328 35.968C9.49867 42.7093 9.584 47.488 9.584 50.304ZM64.24 71.04C64.24 63.616 56.2187 58.1973 40.176 54.784C31.984 57.1733 24.2187 58.368 16.88 58.368C14.4907 58.368 12.144 58.24 9.84 57.984C10.096 68.1387 10.224 78.464 10.224 88.96C15.1733 90.0693 20.1653 90.624 25.2 90.624C30.32 90.624 34.8427 90.3253 38.768 89.728C42.7787 89.0453 46.7467 88.0213 50.672 86.656C54.6827 85.2907 57.9253 83.2427 60.4 80.512C62.96 77.7813 64.24 74.624 64.24 71.04ZM91.029 42.88C95.381 36.224 101.653 32.896 109.845 32.896C118.037 32.896 124.565 36.224 129.429 42.88C134.378 49.536 136.853 57.1307 136.853 65.664C136.853 74.112 134.165 81.28 128.789 87.168C123.413 93.056 116.586 96 108.309 96C100.032 96 94.0157 93.696 90.261 89.088C86.5063 84.3947 84.629 77.824 84.629 69.376C84.629 58.368 86.7623 49.536 91.029 42.88ZM96.661 49.664C95.5517 52.992 94.6983 56.32 94.101 59.648C93.589 62.976 93.333 66.0907 93.333 68.992C93.333 71.808 93.5463 74.4107 93.973 76.8C94.3997 79.104 95.125 81.408 96.149 83.712C97.173 85.9307 98.709 87.7227 100.757 89.088C102.805 90.368 105.237 91.008 108.053 91.008C113.77 91.008 118.549 88.6613 122.389 83.968C126.314 79.2747 128.277 73.6 128.277 66.944C128.277 60.288 126.485 53.8453 122.901 47.616C119.402 41.3013 115.093 38.144 109.973 38.144C106.901 38.144 104.213 39.2107 101.909 41.344C99.605 43.4773 97.8557 46.2507 96.661 49.664ZM153.779 42.88C158.131 36.224 164.403 32.896 172.595 32.896C180.787 32.896 187.315 36.224 192.179 42.88C197.128 49.536 199.603 57.1307 199.603 65.664C199.603 74.112 196.915 81.28 191.539 87.168C186.163 93.056 179.336 96 171.059 96C162.782 96 156.766 93.696 153.011 89.088C149.256 84.3947 147.379 77.824 147.379 69.376C147.379 58.368 149.512 49.536 153.779 42.88ZM159.411 49.664C158.302 52.992 157.448 56.32 156.851 59.648C156.339 62.976 156.083 66.0907 156.083 68.992C156.083 71.808 156.296 74.4107 156.723 76.8C157.15 79.104 157.875 81.408 158.899 83.712C159.923 85.9307 161.459 87.7227 163.507 89.088C165.555 90.368 167.987 91.008 170.803 91.008C176.52 91.008 181.299 88.6613 185.139 83.968C189.064 79.2747 191.027 73.6 191.027 66.944C191.027 60.288 189.235 53.8453 185.651 47.616C182.152 41.3013 177.843 38.144 172.723 38.144C169.651 38.144 166.963 39.2107 164.659 41.344C162.355 43.4773 160.606 46.2507 159.411 49.664ZM222.545 1.02399C222.63 6.99733 222.673 11.4773 222.673 14.464C222.673 17.3653 222.63 20.2667 222.545 23.168C222.545 26.0693 222.417 31.7013 222.161 40.064C221.905 48.3413 221.734 54.912 221.649 59.776C224.892 57.5573 228.774 54.144 233.297 49.536C237.82 44.8427 241.916 40.832 245.585 37.504C251.388 32.2987 255.526 30.72 258.001 32.768C258.94 33.536 259.238 34.2613 258.897 34.944C258.044 36.736 256.081 38.912 253.009 41.472C250.022 44.032 246.481 46.9333 242.385 50.176C238.289 53.4187 235.046 56.4053 232.657 59.136C238.886 59.9893 243.878 63.488 247.633 69.632C249.254 72.448 250.833 75.264 252.369 78.08C256.294 85.504 260.561 90.5387 265.169 93.184C263.462 94.8907 261.5 95.744 259.281 95.744C257.062 95.744 254.844 94.6773 252.625 92.544C250.492 90.4107 248.614 87.808 246.993 84.736C245.457 81.664 243.878 78.592 242.257 75.52C238.588 68.096 234.321 64.384 229.457 64.384C227.153 64.384 225.19 65.152 223.569 66.688C221.948 68.1387 221.137 69.6747 221.137 71.296C221.137 81.536 220.966 89.1307 220.625 94.08C219.43 95.7013 218.15 96.512 216.785 96.512C216.358 96.512 215.889 96.4267 215.377 96.256C213.5 95.488 212.561 93.9093 212.561 91.52C212.646 89.1307 212.902 81.8773 213.329 69.76C214.268 38.784 214.737 18.9867 214.737 10.368C214.737 6.35733 215.121 3.66933 215.889 2.30399C216.742 0.938662 217.724 0.255997 218.833 0.255997C220.028 0.255997 221.265 0.511996 222.545 1.02399ZM303.93 44.8C303.162 42.8373 301.711 41.3013 299.578 40.192C297.445 39.0827 294.799 38.528 291.642 38.528C288.485 38.528 285.498 39.4667 282.682 41.344C279.951 43.2213 278.586 45.7387 278.586 48.896C278.586 52.0533 279.866 54.5707 282.426 56.448C285.071 58.24 288.229 59.6053 291.898 60.544C295.653 61.4827 299.407 62.5067 303.162 63.616C306.917 64.64 310.074 66.3893 312.634 68.864C315.279 71.2533 316.602 74.4107 316.602 78.336C316.602 84.0533 314.213 88.4053 309.434 91.392C304.741 94.3787 299.066 95.872 292.41 95.872C288.485 95.872 283.322 94.8053 276.922 92.672C270.607 90.5387 267.45 87.9787 267.45 84.992C267.45 82.7733 269.327 81.664 273.082 81.664C274.191 81.664 275.642 82.3467 277.434 83.712C282.895 87.7227 288.485 89.728 294.202 89.728C297.274 89.728 299.919 89.216 302.138 88.192C306.234 86.2293 308.282 83.072 308.282 78.72C308.282 76.0747 306.959 73.9413 304.314 72.32C301.754 70.6987 298.597 69.4187 294.842 68.48C291.173 67.5413 287.461 66.5173 283.706 65.408C279.951 64.2987 276.751 62.464 274.106 59.904C271.546 57.2587 270.266 53.9307 270.266 49.92C270.266 44.7147 272.613 40.4907 277.306 37.248C281.999 34.0053 287.802 32.384 294.714 32.384C299.407 32.384 303.631 33.6213 307.386 36.096C311.226 38.4853 313.146 41.984 313.146 46.592C313.146 49.664 311.397 51.2 307.898 51.2C306.447 51.2 305.466 50.944 304.954 50.432C304.527 49.92 304.271 49.024 304.186 47.744C304.186 46.3787 304.101 45.3973 303.93 44.8ZM328.32 69.504L329.472 12.16C329.472 7.72266 329.216 4.69333 328.704 3.072C330.24 1.70666 332.587 1.02399 335.744 1.02399C337.024 10.1547 337.664 21.888 337.664 36.224C337.664 40.4907 337.28 50.3893 336.512 65.92C340.523 44.3307 347.691 33.536 358.016 33.536C361.685 33.536 364.501 35.4987 366.464 39.424C368.512 43.264 369.792 47.9573 370.304 53.504C370.816 59.0507 371.243 64.5973 371.584 70.144C372.437 83.456 374.827 90.112 378.752 90.112C378.837 90.112 379.648 89.856 381.184 89.344C384.597 88.32 386.517 88.064 386.944 88.576C386.944 89.5147 385.621 90.7093 382.976 92.16C380.331 93.5253 377.899 94.208 375.68 94.208C371.925 94.208 369.024 92.288 366.976 88.448C365.013 84.5227 363.776 79.7867 363.264 74.24C362.837 68.6933 362.496 63.1893 362.24 57.728C362.069 52.1813 361.515 47.488 360.576 43.648C359.637 39.7227 358.059 37.76 355.84 37.76C353.109 37.76 350.592 40.7467 348.288 46.72C346.069 52.608 344.32 59.136 343.04 66.304C341.76 73.472 340.181 80.0427 338.304 86.016C336.512 91.904 334.677 94.848 332.8 94.848C329.813 94.848 328.32 86.4 328.32 69.504ZM396.58 70.016C396.409 71.7227 396.324 72.8747 396.324 73.472C396.324 78.592 397.86 82.56 400.932 85.376C404.089 88.192 407.801 89.6 412.068 89.6C416.335 89.6 419.791 89.0027 422.436 87.808C425.167 86.6133 427.129 85.3333 428.324 83.968C431.396 80.128 434.212 78.208 436.772 78.208C437.711 78.208 438.82 78.464 440.1 78.976C439.247 83.1573 436.004 86.9973 430.372 90.496C424.825 93.9093 417.828 95.616 409.38 95.616C403.407 95.616 398.244 93.7387 393.892 89.984C389.625 86.144 387.492 80.9387 387.492 74.368C387.492 67.7973 388.772 61.44 391.332 55.296C393.977 49.0667 397.732 43.776 402.596 39.424C407.545 34.9867 412.537 32.768 417.572 32.768C422.692 32.768 426.788 33.8347 429.86 35.968C433.017 38.016 434.596 41.0453 434.596 45.056C434.596 52.48 431.268 58.624 424.612 63.488C418.041 68.2667 411.044 70.656 403.62 70.656C401.657 70.656 399.311 70.4427 396.58 70.016ZM406.308 65.792C410.319 65.792 413.903 64.512 417.06 61.952C420.217 59.392 422.436 56.704 423.716 53.888C425.081 51.072 425.764 48.512 425.764 46.208C425.764 43.904 424.868 41.8987 423.076 40.192C421.284 38.4 419.193 37.504 416.804 37.504C412.537 37.504 408.569 40.448 404.9 46.336C401.316 52.224 398.756 58.3253 397.22 64.64C400.975 65.408 404.004 65.792 406.308 65.792ZM454.776 19.456C454.776 11.008 453.624 5.33333 451.32 2.432C452.429 0.810661 454.349 -7.62939e-06 457.08 -7.62939e-06C457.592 -7.62939e-06 458.147 0.042661 458.744 0.127998C460.877 2.26133 461.944 8.448 461.944 18.688C461.944 24.2347 461.688 30.6773 461.176 38.016C460.152 50.816 459.64 60.2027 459.64 66.176C459.64 82.304 462.755 90.368 468.984 90.368C468.984 90.368 470.563 90.0693 473.72 89.472C474.488 89.472 475.128 89.8133 475.64 90.496C475.384 93.568 472.867 95.104 468.088 95.104C463.395 95.104 459.768 93.696 457.208 90.88C454.648 87.9787 453.027 84.3947 452.344 80.128C451.747 75.776 451.448 72.192 451.448 69.376C451.448 66.56 451.491 63.488 451.576 60.16C451.661 56.7467 452.045 51.8827 452.728 45.568C454.093 32.768 454.776 24.064 454.776 19.456ZM475.036 34.432C475.804 32.8107 477.468 32 480.028 32C481.137 32 482.076 32.256 482.844 32.768C485.233 39.3387 487.58 45.952 489.884 52.608C494.236 64.8107 498.289 74.4533 502.044 81.536C503.836 71.1253 507.292 60.6293 512.412 50.048C517.617 39.4667 522.353 34.176 526.62 34.176C527.9 34.176 529.18 34.4747 530.46 35.072C520.647 47.9573 513.607 65.024 509.34 86.272C508.487 91.2213 507.548 94.0373 506.524 94.72C505.415 95.488 504.263 95.872 503.068 95.872C501.873 95.872 500.935 95.616 500.252 95.104C499.655 94.592 499.185 94.08 498.844 93.568C498.588 93.056 498.204 92.2027 497.692 91.008C497.265 89.8133 496.924 89.0027 496.668 88.576C487.964 72.2773 480.753 54.2293 475.036 34.432ZM542.58 70.016C542.409 71.7227 542.324 72.8747 542.324 73.472C542.324 78.592 543.86 82.56 546.932 85.376C550.089 88.192 553.801 89.6 558.068 89.6C562.335 89.6 565.791 89.0027 568.436 87.808C571.167 86.6133 573.129 85.3333 574.324 83.968C577.396 80.128 580.212 78.208 582.772 78.208C583.711 78.208 584.82 78.464 586.1 78.976C585.247 83.1573 582.004 86.9973 576.372 90.496C570.825 93.9093 563.828 95.616 555.38 95.616C549.407 95.616 544.244 93.7387 539.892 89.984C535.625 86.144 533.492 80.9387 533.492 74.368C533.492 67.7973 534.772 61.44 537.332 55.296C539.977 49.0667 543.732 43.776 548.596 39.424C553.545 34.9867 558.537 32.768 563.572 32.768C568.692 32.768 572.788 33.8347 575.86 35.968C579.017 38.016 580.596 41.0453 580.596 45.056C580.596 52.48 577.268 58.624 570.612 63.488C564.041 68.2667 557.044 70.656 549.62 70.656C547.657 70.656 545.311 70.4427 542.58 70.016ZM552.308 65.792C556.319 65.792 559.903 64.512 563.06 61.952C566.217 59.392 568.436 56.704 569.716 53.888C571.081 51.072 571.764 48.512 571.764 46.208C571.764 43.904 570.868 41.8987 569.076 40.192C567.284 38.4 565.193 37.504 562.804 37.504C558.537 37.504 554.569 40.448 550.9 46.336C547.316 52.224 544.756 58.3253 543.22 64.64C546.975 65.408 550.004 65.792 552.308 65.792ZM628.68 44.8C627.912 42.8373 626.461 41.3013 624.328 40.192C622.195 39.0827 619.549 38.528 616.392 38.528C613.235 38.528 610.248 39.4667 607.432 41.344C604.701 43.2213 603.336 45.7387 603.336 48.896C603.336 52.0533 604.616 54.5707 607.176 56.448C609.821 58.24 612.979 59.6053 616.648 60.544C620.403 61.4827 624.157 62.5067 627.912 63.616C631.667 64.64 634.824 66.3893 637.384 68.864C640.029 71.2533 641.352 74.4107 641.352 78.336C641.352 84.0533 638.963 88.4053 634.184 91.392C629.491 94.3787 623.816 95.872 617.16 95.872C613.235 95.872 608.072 94.8053 601.672 92.672C595.357 90.5387 592.2 87.9787 592.2 84.992C592.2 82.7733 594.077 81.664 597.832 81.664C598.941 81.664 600.392 82.3467 602.184 83.712C607.645 87.7227 613.235 89.728 618.952 89.728C622.024 89.728 624.669 89.216 626.888 88.192C630.984 86.2293 633.032 83.072 633.032 78.72C633.032 76.0747 631.709 73.9413 629.064 72.32C626.504 70.6987 623.347 69.4187 619.592 68.48C615.923 67.5413 612.211 66.5173 608.456 65.408C604.701 64.2987 601.501 62.464 598.856 59.904C596.296 57.2587 595.016 53.9307 595.016 49.92C595.016 44.7147 597.363 40.4907 602.056 37.248C606.749 34.0053 612.552 32.384 619.464 32.384C624.157 32.384 628.381 33.6213 632.136 36.096C635.976 38.4853 637.896 41.984 637.896 46.592C637.896 49.664 636.147 51.2 632.648 51.2C631.197 51.2 630.216 50.944 629.704 50.432C629.277 49.92 629.021 49.024 628.936 47.744C628.936 46.3787 628.851 45.3973 628.68 44.8Z"
    fill="white" />
</svg>