<svg width="687" height="100" viewBox="0 0 687 100" fill="none" xmlns="http://www.w3.org/2000/svg">
  <path
    d="M141.841 82.3259L141 20.8279C141 16.3425 150.076 14.0999 168.227 14.0999C176.777 14.0999 183.926 15.7118 189.673 18.9356C195.49 22.1594 198.398 26.7849 198.398 32.8121C198.398 36.8068 196.856 40.5913 193.773 44.1656C190.689 47.7398 187.22 50.0175 183.365 50.9987C188.201 52.4704 192.371 54.608 195.875 57.4113C199.449 60.2146 201.237 63.859 201.237 68.3443C201.237 72.8296 199.309 76.7893 195.455 80.2234C188.026 86.7411 176.602 90 161.184 90C148.289 90 141.841 87.442 141.841 82.3259ZM148.674 51.3141C153.019 49.6321 157.82 48.7911 163.076 48.7911C165.529 48.7911 167.982 48.7911 170.435 48.7911C174.149 48.7911 178.635 47.1441 183.891 43.8502C189.217 40.4862 191.88 37.2974 191.88 34.2838C191.88 29.7985 189.077 26.2593 183.47 23.6662C177.864 21.0031 171.661 19.6715 164.863 19.6715C158.065 19.6715 152.564 20.4424 148.359 21.9842C148.359 23.2457 148.359 25.1029 148.359 27.5559C148.359 29.9387 148.394 33.9334 148.464 39.5401C148.604 45.0767 148.674 49.0013 148.674 51.3141ZM193.562 68.3443C193.562 62.247 186.975 57.7968 173.799 54.9934C167.071 56.9558 160.693 57.9369 154.666 57.9369C152.704 57.9369 150.777 57.8318 148.884 57.6216C149.095 65.9615 149.2 74.4415 149.2 83.0618C153.265 83.9728 157.364 84.4284 161.499 84.4284C165.704 84.4284 169.419 84.1831 172.643 83.6925C175.936 83.1318 179.195 82.2908 182.419 81.1695C185.713 80.0482 188.376 78.3662 190.409 76.1235C192.511 73.8809 193.562 71.2878 193.562 68.3443Z"
    fill="black" />
  <path
    d="M215.564 45.2168C219.138 39.7503 224.289 37.0171 231.017 37.0171C237.745 37.0171 243.107 39.7503 247.101 45.2168C251.166 50.6833 253.199 56.9207 253.199 63.929C253.199 70.8673 250.991 76.7543 246.576 81.59C242.16 86.4258 236.554 88.8436 229.756 88.8436C222.958 88.8436 218.017 86.9514 214.933 83.1669C211.849 79.3123 210.308 73.9159 210.308 66.9777C210.308 57.9369 212.06 50.6833 215.564 45.2168ZM220.189 50.7884C219.278 53.5217 218.577 56.2549 218.087 58.9882C217.666 61.7214 217.456 64.2795 217.456 66.6623C217.456 68.975 217.631 71.1126 217.982 73.0749C218.332 74.9671 218.928 76.8594 219.769 78.7516C220.61 80.5738 221.871 82.0456 223.553 83.1669C225.235 84.2181 227.233 84.7438 229.545 84.7438C234.241 84.7438 238.166 82.8165 241.319 78.9619C244.543 75.1073 246.155 70.4468 246.155 64.9803C246.155 59.5138 244.683 54.2225 241.74 49.1064C238.867 43.9203 235.327 41.3272 231.122 41.3272C228.599 41.3272 226.392 42.2032 224.499 43.9553C222.607 45.7074 221.171 47.9851 220.189 50.7884Z"
    fill="black" />
  <path
    d="M267.1 45.2168C270.674 39.7503 275.825 37.0171 282.553 37.0171C289.281 37.0171 294.642 39.7503 298.637 45.2168C302.702 50.6833 304.734 56.9207 304.734 63.929C304.734 70.8673 302.527 76.7543 298.111 81.59C293.696 86.4258 288.09 88.8436 281.292 88.8436C274.493 88.8436 269.553 86.9514 266.469 83.1669C263.385 79.3123 261.843 73.9159 261.843 66.9777C261.843 57.9369 263.596 50.6833 267.1 45.2168ZM271.725 50.7884C270.814 53.5217 270.113 56.2549 269.623 58.9882C269.202 61.7214 268.992 64.2795 268.992 66.6623C268.992 68.975 269.167 71.1126 269.518 73.0749C269.868 74.9671 270.464 76.8594 271.305 78.7516C272.146 80.5738 273.407 82.0456 275.089 83.1669C276.771 84.2181 278.769 84.7438 281.081 84.7438C285.777 84.7438 289.702 82.8165 292.855 78.9619C296.079 75.1073 297.691 70.4468 297.691 64.9803C297.691 59.5138 296.219 54.2225 293.276 49.1064C290.402 43.9203 286.863 41.3272 282.658 41.3272C280.135 41.3272 277.928 42.2032 276.035 43.9553C274.143 45.7074 272.706 47.9851 271.725 50.7884Z"
    fill="black" />
  <path
    d="M323.576 10.841C323.646 15.7468 323.681 19.4262 323.681 21.8791C323.681 24.2619 323.646 26.6448 323.576 29.0276C323.576 31.4104 323.471 36.0359 323.261 42.9041C323.051 49.7022 322.911 55.0986 322.84 59.0933C325.504 57.2711 328.692 54.4678 332.407 50.6833C336.121 46.8287 339.485 43.5348 342.499 40.8016C347.264 36.5265 350.664 35.23 352.696 36.912C353.467 37.5427 353.712 38.1384 353.432 38.6991C352.731 40.1708 351.119 41.958 348.596 44.0604C346.143 46.1629 343.235 48.5458 339.871 51.2089C336.507 53.8721 333.844 56.325 331.881 58.5677C336.997 59.2685 341.097 62.1419 344.181 67.1879C345.512 69.5007 346.809 71.8134 348.07 74.1262C351.294 80.2234 354.798 84.3583 358.583 86.5309C357.181 87.9325 355.569 88.6334 353.747 88.6334C351.925 88.6334 350.103 87.7573 348.281 86.0053C346.529 84.2532 344.987 82.1156 343.655 79.5926C342.394 77.0696 341.097 74.5467 339.766 72.0237C336.752 65.9264 333.248 62.8778 329.253 62.8778C327.361 62.8778 325.749 63.5085 324.417 64.77C323.086 65.9615 322.42 67.223 322.42 68.5545C322.42 76.9645 322.28 83.2019 321.999 87.2668C321.018 88.5983 319.967 89.2641 318.846 89.2641C318.495 89.2641 318.11 89.194 317.689 89.0539C316.148 88.4231 315.377 87.1266 315.377 85.1643C315.447 83.2019 315.657 77.2449 316.007 67.293C316.778 41.8528 317.164 25.5935 317.164 18.5151C317.164 15.2212 317.479 13.0136 318.11 11.8922C318.811 10.7709 319.617 10.2103 320.528 10.2103C321.509 10.2103 322.525 10.4205 323.576 10.841Z"
    fill="black" />
  <path
    d="M390.417 46.7937C389.786 45.1818 388.595 43.9203 386.843 43.0092C385.091 42.0981 382.918 41.6426 380.325 41.6426C377.732 41.6426 375.279 42.4135 372.966 43.9553C370.723 45.4972 369.602 47.5646 369.602 50.1577C369.602 52.7508 370.653 54.8182 372.756 56.3601C374.928 57.8318 377.522 58.9531 380.535 59.7241C383.619 60.495 386.702 61.336 389.786 62.247C392.87 63.088 395.463 64.5248 397.565 66.5572C399.738 68.5195 400.824 71.1126 400.824 74.3364C400.824 79.032 398.862 82.6062 394.937 85.0591C391.083 87.512 386.422 88.7385 380.956 88.7385C377.732 88.7385 373.492 87.8625 368.236 86.1104C363.049 84.3583 360.456 82.2558 360.456 79.8029C360.456 77.9807 361.998 77.0697 365.082 77.0697C365.993 77.0697 367.184 77.6303 368.656 78.7516C373.141 82.0456 377.732 83.6925 382.427 83.6925C384.95 83.6925 387.123 83.272 388.945 82.431C392.309 80.8191 393.991 78.226 393.991 74.6518C393.991 72.4792 392.905 70.7271 390.732 69.3955C388.63 68.064 386.037 67.0127 382.953 66.2418C379.939 65.4709 376.891 64.6299 373.807 63.7188C370.723 62.8077 368.095 61.3009 365.923 59.1984C363.82 57.0258 362.769 54.2926 362.769 50.9987C362.769 46.7236 364.696 43.2545 368.551 40.5913C372.405 37.9282 377.171 36.5966 382.848 36.5966C386.702 36.5966 390.172 37.6128 393.255 39.6452C396.409 41.6075 397.986 44.4809 397.986 48.2654C397.986 50.7884 396.549 52.0499 393.676 52.0499C392.484 52.0499 391.678 51.8397 391.258 51.4192C390.907 50.9987 390.697 50.2628 390.627 49.2116C390.627 48.0902 390.557 47.2843 390.417 46.7937Z"
    fill="black" />
  <path
    d="M410.448 67.0828L411.394 19.9869C411.394 16.3425 411.184 13.8546 410.763 12.523C412.025 11.4017 413.952 10.841 416.545 10.841C417.597 18.3399 418.122 27.9763 418.122 39.7503C418.122 43.2545 417.807 51.3841 417.176 64.1393C420.47 46.4082 426.357 37.5427 434.837 37.5427C437.851 37.5427 440.163 39.1546 441.775 42.3785C443.457 45.5322 444.508 49.3868 444.929 53.9422C445.349 58.4976 445.7 63.053 445.98 67.6084C446.681 78.5414 448.643 84.0079 451.867 84.0079C451.937 84.0079 452.603 83.7976 453.865 83.3771C456.668 82.5361 458.245 82.3259 458.595 82.7464C458.595 83.5173 457.509 84.4985 455.336 85.6899C453.164 86.8112 451.166 87.3719 449.344 87.3719C446.261 87.3719 443.878 85.795 442.196 82.6413C440.584 79.4174 439.568 75.5278 439.147 70.9724C438.797 66.417 438.516 61.8966 438.306 57.4113C438.166 52.8559 437.71 49.0013 436.939 45.8476C436.169 42.6237 434.872 41.0118 433.05 41.0118C430.807 41.0118 428.74 43.4647 426.848 48.3706C425.025 53.2063 423.589 58.5677 422.537 64.4547C421.486 70.3417 420.19 75.7381 418.648 80.6439C417.176 85.4796 415.669 87.8975 414.127 87.8975C411.675 87.8975 410.448 80.9593 410.448 67.0828Z"
    fill="black" />
  <path
    d="M466.509 67.5033C466.369 68.905 466.299 69.8511 466.299 70.3417C466.299 74.5467 467.56 77.8055 470.083 80.1183C472.676 82.431 475.725 83.5874 479.229 83.5874C482.733 83.5874 485.572 83.0968 487.744 82.1156C489.987 81.1345 491.599 80.0832 492.58 78.9619C495.103 75.8082 497.416 74.2313 499.518 74.2313C500.289 74.2313 501.2 74.4415 502.252 74.862C501.551 78.2961 498.888 81.4499 494.262 84.3233C489.707 87.1266 483.96 88.5283 477.022 88.5283C472.116 88.5283 467.876 86.9864 464.302 83.9028C460.797 80.749 459.045 76.4739 459.045 71.0775C459.045 65.6811 460.097 60.4599 462.199 55.4139C464.372 50.2979 467.455 45.9527 471.45 42.3785C475.515 38.7341 479.615 36.912 483.75 36.912C487.955 36.912 491.319 37.788 493.842 39.5401C496.435 41.2221 497.731 43.71 497.731 47.0039C497.731 53.1012 494.998 58.1472 489.531 62.1419C484.135 66.0666 478.388 68.0289 472.291 68.0289C470.679 68.0289 468.752 67.8537 466.509 67.5033ZM474.499 64.0342C477.793 64.0342 480.736 62.9829 483.329 60.8804C485.922 58.7779 487.744 56.5703 488.796 54.2576C489.917 51.9448 490.478 49.8423 490.478 47.9501C490.478 46.0578 489.742 44.4109 488.27 43.0092C486.798 41.5375 485.081 40.8016 483.119 40.8016C479.615 40.8016 476.356 43.2195 473.342 48.0552C470.399 52.8909 468.296 57.9019 467.035 63.088C470.118 63.7188 472.606 64.0342 474.499 64.0342Z"
    fill="black" />
  <path
    d="M514.305 25.979C514.305 19.0407 513.359 14.3802 511.466 11.9974C512.377 10.6658 513.954 10 516.197 10C516.618 10 517.073 10.035 517.564 10.1051C519.316 11.8572 520.192 16.9382 520.192 25.3482C520.192 29.9036 519.982 35.1949 519.561 41.2221C518.72 51.7346 518.3 59.4437 518.3 64.3495C518.3 77.5953 520.858 84.2181 525.974 84.2181C525.974 84.2181 527.27 83.9728 529.863 83.4823C530.494 83.4823 531.02 83.7626 531.44 84.3233C531.23 86.8463 529.162 88.1078 525.238 88.1078C521.383 88.1078 518.405 86.9514 516.302 84.6386C514.2 82.2558 512.868 79.3123 512.307 75.8081C511.817 72.2339 511.572 69.2904 511.572 66.9777C511.572 64.6649 511.607 62.1419 511.677 59.4087C511.747 56.6053 512.062 52.6106 512.623 47.4244C513.744 36.912 514.305 29.7635 514.305 25.979Z"
    fill="black" />
  <path
    d="M530.944 38.2786C531.575 36.947 532.941 36.2812 535.044 36.2812C535.955 36.2812 536.726 36.4915 537.357 36.912C539.319 42.3084 541.246 47.7398 543.139 53.2063C546.713 63.2282 550.042 71.1476 553.125 76.9645C554.597 68.4144 557.436 59.7941 561.641 51.1038C565.916 42.4135 569.805 38.0683 573.309 38.0683C574.361 38.0683 575.412 38.3136 576.463 38.8042C568.404 49.3868 562.622 63.4034 559.118 80.8541C558.417 84.919 557.646 87.2317 556.805 87.7924C555.894 88.4231 554.948 88.7385 553.966 88.7385C552.985 88.7385 552.214 88.5283 551.654 88.1078C551.163 87.6873 550.778 87.2668 550.497 86.8463C550.287 86.4258 549.972 85.7249 549.551 84.7438C549.201 83.7626 548.92 83.0968 548.71 82.7464C541.562 69.3605 535.64 54.5379 530.944 38.2786Z"
    fill="black" />
  <path
    d="M586.417 67.5033C586.277 68.905 586.207 69.8511 586.207 70.3417C586.207 74.5467 587.468 77.8055 589.991 80.1183C592.584 82.431 595.633 83.5874 599.137 83.5874C602.641 83.5874 605.48 83.0968 607.652 82.1156C609.895 81.1345 611.507 80.0832 612.488 78.9619C615.011 75.8082 617.324 74.2313 619.426 74.2313C620.197 74.2313 621.108 74.4415 622.16 74.862C621.459 78.2961 618.796 81.4499 614.17 84.3233C609.615 87.1266 603.868 88.5283 596.93 88.5283C592.024 88.5283 587.784 86.9864 584.209 83.9028C580.705 80.749 578.953 76.4739 578.953 71.0775C578.953 65.6811 580.005 60.4599 582.107 55.4139C584.28 50.2979 587.363 45.9527 591.358 42.3785C595.423 38.7341 599.523 36.912 603.658 36.912C607.863 36.912 611.227 37.788 613.75 39.5401C616.343 41.2221 617.639 43.71 617.639 47.0039C617.639 53.1012 614.906 58.1472 609.439 62.1419C604.043 66.0666 598.296 68.0289 592.199 68.0289C590.587 68.0289 588.66 67.8537 586.417 67.5033ZM594.407 64.0342C597.701 64.0342 600.644 62.9829 603.237 60.8804C605.83 58.7779 607.652 56.5703 608.704 54.2576C609.825 51.9448 610.386 49.8423 610.386 47.9501C610.386 46.0578 609.65 44.4109 608.178 43.0092C606.706 41.5375 604.989 40.8016 603.027 40.8016C599.523 40.8016 596.264 43.2195 593.25 48.0552C590.307 52.8909 588.204 57.9019 586.943 63.088C590.026 63.7188 592.514 64.0342 594.407 64.0342Z"
    fill="black" />
  <path
    d="M657.13 46.7937C656.499 45.1818 655.308 43.9203 653.556 43.0092C651.804 42.0981 649.631 41.6426 647.038 41.6426C644.445 41.6426 641.992 42.4135 639.679 43.9553C637.437 45.4972 636.315 47.5646 636.315 50.1577C636.315 52.7508 637.367 54.8182 639.469 56.3601C641.642 57.8318 644.235 58.9531 647.248 59.7241C650.332 60.495 653.416 61.336 656.499 62.247C659.583 63.088 662.176 64.5248 664.278 66.5572C666.451 68.5195 667.537 71.1126 667.537 74.3364C667.537 79.032 665.575 82.6062 661.65 85.0591C657.796 87.512 653.135 88.7385 647.669 88.7385C644.445 88.7385 640.205 87.8625 634.949 86.1104C629.763 84.3583 627.169 82.2558 627.169 79.8029C627.169 77.9807 628.711 77.0697 631.795 77.0697C632.706 77.0697 633.897 77.6303 635.369 78.7516C639.854 82.0456 644.445 83.6925 649.14 83.6925C651.663 83.6925 653.836 83.272 655.658 82.431C659.022 80.8191 660.704 78.226 660.704 74.6518C660.704 72.4792 659.618 70.7271 657.445 69.3955C655.343 68.064 652.75 67.0127 649.666 66.2418C646.653 65.4709 643.604 64.6299 640.52 63.7188C637.437 62.8077 634.809 61.3009 632.636 59.1984C630.533 57.0258 629.482 54.2926 629.482 50.9987C629.482 46.7236 631.409 43.2545 635.264 40.5913C639.119 37.9282 643.884 36.5966 649.561 36.5966C653.416 36.5966 656.885 37.6128 659.968 39.6452C663.122 41.6075 664.699 44.4809 664.699 48.2654C664.699 50.7884 663.262 52.0499 660.389 52.0499C659.197 52.0499 658.391 51.8397 657.971 51.4192C657.621 50.9987 657.41 50.2628 657.34 49.2116C657.34 48.0902 657.27 47.2843 657.13 46.7937Z"
    fill="black" />
  <path d="M30.5132 0L0.202148 36.2931L45.0624 88.5398L74.9692 53.8417L30.5132 0Z" fill="#8982FF" />
  <path
    d="M1.41431 36.692C2.08476 35.501 2.91619 34.4054 3.88568 33.4355L31.7251 5.58337C31.7251 5.58337 41.4246 3.98807 43.4455 8.774L7.88064 37.4897L1.41431 36.692Z"
    fill="white" />
  <path
    d="M0 36.0939L41.2226 98.3109C41.2226 98.3109 45.2641 101.103 49.3054 99.5075L91.5384 71.3902L46.6789 4.38696L6.26425 35.4954L0 36.0939Z"
    fill="#8982FF" />
</svg>