<svg width="668" height="100" viewBox="0 0 668 100" fill="none" xmlns="http://www.w3.org/2000/svg">
<path d="M117.841 82.3259L117 20.8279C117 16.3425 126.076 14.0999 144.227 14.0999C152.777 14.0999 159.926 15.7118 165.673 18.9356C171.49 22.1594 174.398 26.7849 174.398 32.8121C174.398 36.8068 172.856 40.5913 169.773 44.1656C166.689 47.7398 163.22 50.0175 159.365 50.9987C164.201 52.4704 168.371 54.608 171.875 57.4113C175.449 60.2146 177.237 63.859 177.237 68.3443C177.237 72.8296 175.309 76.7893 171.455 80.2234C164.026 86.7411 152.602 90 137.184 90C124.289 90 117.841 87.442 117.841 82.3259ZM124.674 51.3141C129.019 49.6321 133.82 48.7911 139.076 48.7911C141.529 48.7911 143.982 48.7911 146.435 48.7911C150.149 48.7911 154.635 47.1441 159.891 43.8502C165.217 40.4862 167.88 37.2974 167.88 34.2838C167.88 29.7985 165.077 26.2593 159.47 23.6662C153.864 21.0031 147.661 19.6715 140.863 19.6715C134.065 19.6715 128.564 20.4424 124.359 21.9842C124.359 23.2457 124.359 25.1029 124.359 27.5559C124.359 29.9387 124.394 33.9334 124.464 39.5401C124.604 45.0767 124.674 49.0013 124.674 51.3141ZM169.562 68.3443C169.562 62.247 162.975 57.7968 149.799 54.9934C143.071 56.9558 136.693 57.9369 130.666 57.9369C128.704 57.9369 126.777 57.8318 124.884 57.6216C125.095 65.9615 125.2 74.4415 125.2 83.0618C129.265 83.9728 133.364 84.4284 137.499 84.4284C141.704 84.4284 145.419 84.1831 148.643 83.6925C151.936 83.1318 155.195 82.2908 158.419 81.1695C161.713 80.0482 164.376 78.3662 166.409 76.1235C168.511 73.8809 169.562 71.2878 169.562 68.3443Z" fill="white"/>
<path d="M191.564 45.2168C195.138 39.7503 200.289 37.0171 207.017 37.0171C213.745 37.0171 219.107 39.7503 223.101 45.2168C227.166 50.6833 229.199 56.9207 229.199 63.929C229.199 70.8673 226.991 76.7543 222.576 81.59C218.16 86.4258 212.554 88.8436 205.756 88.8436C198.958 88.8436 194.017 86.9514 190.933 83.1669C187.849 79.3123 186.308 73.9159 186.308 66.9777C186.308 57.9369 188.06 50.6833 191.564 45.2168ZM196.189 50.7884C195.278 53.5217 194.577 56.2549 194.087 58.9882C193.666 61.7214 193.456 64.2795 193.456 66.6623C193.456 68.975 193.631 71.1126 193.982 73.0749C194.332 74.9671 194.928 76.8594 195.769 78.7516C196.61 80.5738 197.871 82.0456 199.553 83.1669C201.235 84.2181 203.233 84.7438 205.545 84.7438C210.241 84.7438 214.166 82.8165 217.319 78.9619C220.543 75.1073 222.155 70.4468 222.155 64.9803C222.155 59.5138 220.683 54.2225 217.74 49.1064C214.867 43.9203 211.327 41.3272 207.122 41.3272C204.599 41.3272 202.392 42.2032 200.499 43.9553C198.607 45.7074 197.171 47.9851 196.189 50.7884Z" fill="white"/>
<path d="M243.1 45.2168C246.674 39.7503 251.825 37.0171 258.553 37.0171C265.281 37.0171 270.642 39.7503 274.637 45.2168C278.702 50.6833 280.734 56.9207 280.734 63.929C280.734 70.8673 278.527 76.7543 274.111 81.59C269.696 86.4258 264.09 88.8436 257.292 88.8436C250.493 88.8436 245.553 86.9514 242.469 83.1669C239.385 79.3123 237.843 73.9159 237.843 66.9777C237.843 57.9369 239.596 50.6833 243.1 45.2168ZM247.725 50.7884C246.814 53.5217 246.113 56.2549 245.623 58.9882C245.202 61.7214 244.992 64.2795 244.992 66.6623C244.992 68.975 245.167 71.1126 245.518 73.0749C245.868 74.9671 246.464 76.8594 247.305 78.7516C248.146 80.5738 249.407 82.0456 251.089 83.1669C252.771 84.2181 254.769 84.7438 257.081 84.7438C261.777 84.7438 265.702 82.8165 268.855 78.9619C272.079 75.1073 273.691 70.4468 273.691 64.9803C273.691 59.5138 272.219 54.2225 269.276 49.1064C266.402 43.9203 262.863 41.3272 258.658 41.3272C256.135 41.3272 253.928 42.2032 252.035 43.9553C250.143 45.7074 248.706 47.9851 247.725 50.7884Z" fill="white"/>
<path d="M299.576 10.841C299.646 15.7468 299.681 19.4262 299.681 21.8791C299.681 24.2619 299.646 26.6448 299.576 29.0276C299.576 31.4104 299.471 36.0359 299.261 42.9041C299.051 49.7022 298.911 55.0986 298.84 59.0933C301.504 57.2711 304.692 54.4678 308.407 50.6833C312.121 46.8287 315.485 43.5348 318.499 40.8016C323.264 36.5265 326.664 35.23 328.696 36.912C329.467 37.5427 329.712 38.1384 329.432 38.6991C328.731 40.1708 327.119 41.958 324.596 44.0604C322.143 46.1629 319.235 48.5458 315.871 51.2089C312.507 53.8721 309.844 56.325 307.881 58.5677C312.997 59.2685 317.097 62.1419 320.181 67.1879C321.512 69.5007 322.809 71.8134 324.07 74.1262C327.294 80.2234 330.798 84.3583 334.583 86.5309C333.181 87.9325 331.569 88.6334 329.747 88.6334C327.925 88.6334 326.103 87.7573 324.281 86.0053C322.529 84.2532 320.987 82.1156 319.655 79.5926C318.394 77.0696 317.097 74.5467 315.766 72.0237C312.752 65.9264 309.248 62.8778 305.253 62.8778C303.361 62.8778 301.749 63.5085 300.417 64.77C299.086 65.9615 298.42 67.223 298.42 68.5545C298.42 76.9645 298.28 83.2019 297.999 87.2668C297.018 88.5983 295.967 89.2641 294.846 89.2641C294.495 89.2641 294.11 89.194 293.689 89.0539C292.148 88.4231 291.377 87.1266 291.377 85.1643C291.447 83.2019 291.657 77.2449 292.007 67.293C292.778 41.8528 293.164 25.5935 293.164 18.5151C293.164 15.2212 293.479 13.0136 294.11 11.8922C294.811 10.7709 295.617 10.2103 296.528 10.2103C297.509 10.2103 298.525 10.4205 299.576 10.841Z" fill="white"/>
<path d="M366.417 46.7937C365.786 45.1818 364.595 43.9203 362.843 43.0092C361.091 42.0981 358.918 41.6426 356.325 41.6426C353.732 41.6426 351.279 42.4135 348.966 43.9553C346.723 45.4972 345.602 47.5646 345.602 50.1577C345.602 52.7508 346.653 54.8182 348.756 56.3601C350.928 57.8318 353.522 58.9531 356.535 59.7241C359.619 60.495 362.702 61.336 365.786 62.247C368.87 63.088 371.463 64.5248 373.565 66.5572C375.738 68.5195 376.824 71.1126 376.824 74.3364C376.824 79.032 374.862 82.6062 370.937 85.0591C367.083 87.512 362.422 88.7385 356.956 88.7385C353.732 88.7385 349.492 87.8625 344.236 86.1104C339.049 84.3583 336.456 82.2558 336.456 79.8029C336.456 77.9807 337.998 77.0697 341.082 77.0697C341.993 77.0697 343.184 77.6303 344.656 78.7516C349.141 82.0456 353.732 83.6925 358.427 83.6925C360.95 83.6925 363.123 83.272 364.945 82.431C368.309 80.8191 369.991 78.226 369.991 74.6518C369.991 72.4792 368.905 70.7271 366.732 69.3955C364.63 68.064 362.037 67.0127 358.953 66.2418C355.939 65.4709 352.891 64.6299 349.807 63.7188C346.723 62.8077 344.095 61.3009 341.923 59.1984C339.82 57.0258 338.769 54.2926 338.769 50.9987C338.769 46.7236 340.696 43.2545 344.551 40.5913C348.405 37.9282 353.171 36.5966 358.848 36.5966C362.702 36.5966 366.172 37.6128 369.255 39.6452C372.409 41.6075 373.986 44.4809 373.986 48.2654C373.986 50.7884 372.549 52.0499 369.676 52.0499C368.484 52.0499 367.678 51.8397 367.258 51.4192C366.907 50.9987 366.697 50.2628 366.627 49.2116C366.627 48.0902 366.557 47.2843 366.417 46.7937Z" fill="white"/>
<path d="M386.448 67.0828L387.394 19.9869C387.394 16.3425 387.184 13.8546 386.763 12.523C388.025 11.4017 389.952 10.841 392.545 10.841C393.597 18.3399 394.122 27.9763 394.122 39.7503C394.122 43.2545 393.807 51.3841 393.176 64.1393C396.47 46.4082 402.357 37.5427 410.837 37.5427C413.851 37.5427 416.163 39.1546 417.775 42.3785C419.457 45.5322 420.508 49.3868 420.929 53.9422C421.349 58.4976 421.7 63.053 421.98 67.6084C422.681 78.5414 424.643 84.0079 427.867 84.0079C427.937 84.0079 428.603 83.7976 429.865 83.3771C432.668 82.5361 434.245 82.3259 434.595 82.7464C434.595 83.5173 433.509 84.4985 431.336 85.6899C429.164 86.8112 427.166 87.3719 425.344 87.3719C422.261 87.3719 419.878 85.795 418.196 82.6413C416.584 79.4174 415.568 75.5278 415.147 70.9724C414.797 66.417 414.516 61.8966 414.306 57.4113C414.166 52.8559 413.71 49.0013 412.939 45.8476C412.169 42.6237 410.872 41.0118 409.05 41.0118C406.807 41.0118 404.74 43.4647 402.848 48.3706C401.025 53.2063 399.589 58.5677 398.537 64.4547C397.486 70.3417 396.19 75.7381 394.648 80.6439C393.176 85.4796 391.669 87.8975 390.127 87.8975C387.675 87.8975 386.448 80.9593 386.448 67.0828Z" fill="white"/>
<path d="M442.509 67.5033C442.369 68.905 442.299 69.8511 442.299 70.3417C442.299 74.5467 443.56 77.8055 446.083 80.1183C448.676 82.431 451.725 83.5874 455.229 83.5874C458.733 83.5874 461.572 83.0968 463.744 82.1156C465.987 81.1345 467.599 80.0832 468.58 78.9619C471.103 75.8082 473.416 74.2313 475.518 74.2313C476.289 74.2313 477.2 74.4415 478.252 74.862C477.551 78.2961 474.888 81.4499 470.262 84.3233C465.707 87.1266 459.96 88.5283 453.022 88.5283C448.116 88.5283 443.876 86.9864 440.302 83.9028C436.797 80.749 435.045 76.4739 435.045 71.0775C435.045 65.6811 436.097 60.4599 438.199 55.4139C440.372 50.2979 443.455 45.9527 447.45 42.3785C451.515 38.7341 455.615 36.912 459.75 36.912C463.955 36.912 467.319 37.788 469.842 39.5401C472.435 41.2221 473.731 43.71 473.731 47.0039C473.731 53.1012 470.998 58.1472 465.531 62.1419C460.135 66.0666 454.388 68.0289 448.291 68.0289C446.679 68.0289 444.752 67.8537 442.509 67.5033ZM450.499 64.0342C453.793 64.0342 456.736 62.9829 459.329 60.8804C461.922 58.7779 463.744 56.5703 464.796 54.2576C465.917 51.9448 466.478 49.8423 466.478 47.9501C466.478 46.0578 465.742 44.4109 464.27 43.0092C462.798 41.5375 461.081 40.8016 459.119 40.8016C455.615 40.8016 452.356 43.2195 449.342 48.0552C446.399 52.8909 444.296 57.9019 443.035 63.088C446.118 63.7188 448.606 64.0342 450.499 64.0342Z" fill="white"/>
<path d="M490.305 25.979C490.305 19.0407 489.359 14.3802 487.466 11.9974C488.377 10.6658 489.954 10 492.197 10C492.618 10 493.073 10.035 493.564 10.1051C495.316 11.8572 496.192 16.9382 496.192 25.3482C496.192 29.9036 495.982 35.1949 495.561 41.2221C494.72 51.7346 494.3 59.4437 494.3 64.3495C494.3 77.5953 496.858 84.2181 501.974 84.2181C501.974 84.2181 503.27 83.9728 505.863 83.4823C506.494 83.4823 507.02 83.7626 507.44 84.3233C507.23 86.8463 505.162 88.1078 501.238 88.1078C497.383 88.1078 494.405 86.9514 492.302 84.6386C490.2 82.2558 488.868 79.3123 488.307 75.8081C487.817 72.2339 487.572 69.2904 487.572 66.9777C487.572 64.6649 487.607 62.1419 487.677 59.4087C487.747 56.6053 488.062 52.6106 488.623 47.4244C489.744 36.912 490.305 29.7635 490.305 25.979Z" fill="white"/>
<path d="M506.944 38.2786C507.575 36.947 508.941 36.2812 511.044 36.2812C511.955 36.2812 512.726 36.4915 513.357 36.912C515.319 42.3084 517.246 47.7398 519.139 53.2063C522.713 63.2282 526.042 71.1476 529.125 76.9645C530.597 68.4144 533.436 59.7941 537.641 51.1038C541.916 42.4135 545.805 38.0683 549.309 38.0683C550.361 38.0683 551.412 38.3136 552.463 38.8042C544.404 49.3868 538.622 63.4034 535.118 80.8541C534.417 84.919 533.646 87.2317 532.805 87.7924C531.894 88.4231 530.948 88.7385 529.966 88.7385C528.985 88.7385 528.214 88.5283 527.654 88.1078C527.163 87.6873 526.778 87.2668 526.497 86.8463C526.287 86.4258 525.972 85.7249 525.551 84.7438C525.201 83.7626 524.92 83.0968 524.71 82.7464C517.562 69.3605 511.64 54.5379 506.944 38.2786Z" fill="white"/>
<path d="M562.417 67.5033C562.277 68.905 562.207 69.8511 562.207 70.3417C562.207 74.5467 563.468 77.8055 565.991 80.1183C568.584 82.431 571.633 83.5874 575.137 83.5874C578.641 83.5874 581.48 83.0968 583.652 82.1156C585.895 81.1345 587.507 80.0832 588.488 78.9619C591.011 75.8082 593.324 74.2313 595.426 74.2313C596.197 74.2313 597.108 74.4415 598.16 74.862C597.459 78.2961 594.796 81.4499 590.17 84.3233C585.615 87.1266 579.868 88.5283 572.93 88.5283C568.024 88.5283 563.784 86.9864 560.209 83.9028C556.705 80.749 554.953 76.4739 554.953 71.0775C554.953 65.6811 556.005 60.4599 558.107 55.4139C560.28 50.2979 563.363 45.9527 567.358 42.3785C571.423 38.7341 575.523 36.912 579.658 36.912C583.863 36.912 587.227 37.788 589.75 39.5401C592.343 41.2221 593.639 43.71 593.639 47.0039C593.639 53.1012 590.906 58.1472 585.439 62.1419C580.043 66.0666 574.296 68.0289 568.199 68.0289C566.587 68.0289 564.66 67.8537 562.417 67.5033ZM570.407 64.0342C573.701 64.0342 576.644 62.9829 579.237 60.8804C581.83 58.7779 583.652 56.5703 584.704 54.2576C585.825 51.9448 586.386 49.8423 586.386 47.9501C586.386 46.0578 585.65 44.4109 584.178 43.0092C582.706 41.5375 580.989 40.8016 579.027 40.8016C575.523 40.8016 572.264 43.2195 569.25 48.0552C566.307 52.8909 564.204 57.9019 562.943 63.088C566.026 63.7188 568.514 64.0342 570.407 64.0342Z" fill="white"/>
<path d="M633.13 46.7937C632.499 45.1818 631.308 43.9203 629.556 43.0092C627.804 42.0981 625.631 41.6426 623.038 41.6426C620.445 41.6426 617.992 42.4135 615.679 43.9553C613.437 45.4972 612.315 47.5646 612.315 50.1577C612.315 52.7508 613.367 54.8182 615.469 56.3601C617.642 57.8318 620.235 58.9531 623.248 59.7241C626.332 60.495 629.416 61.336 632.499 62.247C635.583 63.088 638.176 64.5248 640.278 66.5572C642.451 68.5195 643.537 71.1126 643.537 74.3364C643.537 79.032 641.575 82.6062 637.65 85.0591C633.796 87.512 629.135 88.7385 623.669 88.7385C620.445 88.7385 616.205 87.8625 610.949 86.1104C605.763 84.3583 603.169 82.2558 603.169 79.8029C603.169 77.9807 604.711 77.0697 607.795 77.0697C608.706 77.0697 609.897 77.6303 611.369 78.7516C615.854 82.0456 620.445 83.6925 625.14 83.6925C627.663 83.6925 629.836 83.272 631.658 82.431C635.022 80.8191 636.704 78.226 636.704 74.6518C636.704 72.4792 635.618 70.7271 633.445 69.3955C631.343 68.064 628.75 67.0127 625.666 66.2418C622.653 65.4709 619.604 64.6299 616.52 63.7188C613.437 62.8077 610.809 61.3009 608.636 59.1984C606.533 57.0258 605.482 54.2926 605.482 50.9987C605.482 46.7236 607.409 43.2545 611.264 40.5913C615.119 37.9282 619.884 36.5966 625.561 36.5966C629.416 36.5966 632.885 37.6128 635.968 39.6452C639.122 41.6075 640.699 44.4809 640.699 48.2654C640.699 50.7884 639.262 52.0499 636.389 52.0499C635.197 52.0499 634.391 51.8397 633.971 51.4192C633.621 50.9987 633.41 50.2628 633.34 49.2116C633.34 48.0902 633.27 47.2843 633.13 46.7937Z" fill="white"/>
<path d="M30.5132 0L0.202148 36.2931L45.0624 88.5398L74.9692 53.8417L30.5132 0Z" fill="white"/>
<path d="M1.41431 36.692C2.08476 35.501 2.91619 34.4054 3.88568 33.4355L31.7251 5.58337C31.7251 5.58337 41.4246 3.98807 43.4455 8.774L7.88064 37.4897L1.41431 36.692Z" fill="black"/>
<path d="M0 36.0939L41.2226 98.3109C41.2226 98.3109 45.2641 101.103 49.3054 99.5075L91.5384 71.3902L46.6789 4.38696L6.26425 35.4954L0 36.0939Z" fill="white"/>
</svg>
