<svg
  width="606"
  height="120"
  viewBox="0 0 606 120"
  fill="none"
  xmlns="http://www.w3.org/2000/svg"
>
  <g clip-path="url(#clip0_233_15)">
    <path
      d="M143.92 78.42L143.2 25.77C143.2 21.93 150.97 20.01 166.51 20.01C173.83 20.01 179.95 21.39 184.87 24.15C189.85 26.91 192.34 30.87 192.34 36.03C192.34 39.45 191.02 42.69 188.38 45.75C185.74 48.81 182.77 50.76 179.47 51.6C183.61 52.86 187.18 54.69 190.18 57.09C193.24 59.49 194.77 62.61 194.77 66.45C194.77 70.29 193.12 73.68 189.82 76.62C183.46 82.2 173.68 84.99 160.48 84.99C149.44 84.99 143.92 82.8 143.92 78.42ZM149.77 51.87C153.49 50.43 157.6 49.71 162.1 49.71C164.2 49.71 166.3 49.71 168.4 49.71C171.58 49.71 175.42 48.3 179.92 45.48C184.48 42.6 186.76 39.87 186.76 37.29C186.76 33.45 184.36 30.42 179.56 28.2C174.76 25.92 169.45 24.78 163.63 24.78C157.81 24.78 153.1 25.44 149.5 26.76C149.5 27.84 149.5 29.43 149.5 31.53C149.5 33.57 149.53 36.99 149.59 41.79C149.71 46.53 149.77 49.89 149.77 51.87ZM188.2 66.45C188.2 61.23 182.56 57.42 171.28 55.02C165.52 56.7 160.06 57.54 154.9 57.54C153.22 57.54 151.57 57.45 149.95 57.27C150.13 64.41 150.22 71.67 150.22 79.05C153.7 79.83 157.21 80.22 160.75 80.22C164.35 80.22 167.53 80.01 170.29 79.59C173.11 79.11 175.9 78.39 178.66 77.43C181.48 76.47 183.76 75.03 185.5 73.11C187.3 71.19 188.2 68.97 188.2 66.45ZM207.036 46.65C210.096 41.97 214.506 39.63 220.266 39.63C226.026 39.63 230.616 41.97 234.036 46.65C237.516 51.33 239.256 56.67 239.256 62.67C239.256 68.61 237.366 73.65 233.586 77.79C229.806 81.93 225.006 84 219.186 84C213.366 84 209.136 82.38 206.496 79.14C203.856 75.84 202.536 71.22 202.536 65.28C202.536 57.54 204.036 51.33 207.036 46.65ZM210.996 51.42C210.216 53.76 209.616 56.1 209.196 58.44C208.836 60.78 208.656 62.97 208.656 65.01C208.656 66.99 208.806 68.82 209.106 70.5C209.406 72.12 209.916 73.74 210.636 75.36C211.356 76.92 212.436 78.18 213.876 79.14C215.316 80.04 217.026 80.49 219.006 80.49C223.026 80.49 226.386 78.84 229.086 75.54C231.846 72.24 233.226 68.25 233.226 63.57C233.226 58.89 231.966 54.36 229.446 49.98C226.986 45.54 223.956 43.32 220.356 43.32C218.196 43.32 216.306 44.07 214.686 45.57C213.066 47.07 211.836 49.02 210.996 51.42ZM251.157 46.65C254.217 41.97 258.627 39.63 264.387 39.63C270.147 39.63 274.737 41.97 278.157 46.65C281.637 51.33 283.377 56.67 283.377 62.67C283.377 68.61 281.487 73.65 277.707 77.79C273.927 81.93 269.127 84 263.307 84C257.487 84 253.257 82.38 250.617 79.14C247.977 75.84 246.657 71.22 246.657 65.28C246.657 57.54 248.157 51.33 251.157 46.65ZM255.117 51.42C254.337 53.76 253.737 56.1 253.317 58.44C252.957 60.78 252.777 62.97 252.777 65.01C252.777 66.99 252.927 68.82 253.227 70.5C253.527 72.12 254.037 73.74 254.757 75.36C255.477 76.92 256.557 78.18 257.997 79.14C259.437 80.04 261.147 80.49 263.127 80.49C267.147 80.49 270.507 78.84 273.207 75.54C275.967 72.24 277.347 68.25 277.347 63.57C277.347 58.89 276.087 54.36 273.567 49.98C271.107 45.54 268.077 43.32 264.477 43.32C262.317 43.32 260.427 44.07 258.807 45.57C257.187 47.07 255.957 49.02 255.117 51.42ZM299.508 17.22C299.568 21.42 299.598 24.57 299.598 26.67C299.598 28.71 299.568 30.75 299.508 32.79C299.508 34.83 299.418 38.79 299.238 44.67C299.058 50.49 298.938 55.11 298.878 58.53C301.158 56.97 303.888 54.57 307.068 51.33C310.248 48.03 313.128 45.21 315.708 42.87C319.788 39.21 322.698 38.1 324.438 39.54C325.098 40.08 325.308 40.59 325.068 41.07C324.468 42.33 323.088 43.86 320.928 45.66C318.828 47.46 316.338 49.5 313.458 51.78C310.578 54.06 308.298 56.16 306.618 58.08C310.998 58.68 314.508 61.14 317.148 65.46C318.288 67.44 319.398 69.42 320.478 71.4C323.238 76.62 326.238 80.16 329.478 82.02C328.278 83.22 326.898 83.82 325.338 83.82C323.778 83.82 322.218 83.07 320.658 81.57C319.158 80.07 317.838 78.24 316.698 76.08C315.618 73.92 314.508 71.76 313.368 69.6C310.788 64.38 307.788 61.77 304.368 61.77C302.748 61.77 301.368 62.31 300.228 63.39C299.088 64.41 298.518 65.49 298.518 66.63C298.518 73.83 298.398 79.17 298.158 82.65C297.318 83.79 296.418 84.36 295.458 84.36C295.158 84.36 294.828 84.3 294.468 84.18C293.148 83.64 292.488 82.53 292.488 80.85C292.548 79.17 292.728 74.07 293.028 65.55C293.688 43.77 294.018 29.85 294.018 23.79C294.018 20.97 294.288 19.08 294.828 18.12C295.428 17.16 296.118 16.68 296.898 16.68C297.738 16.68 298.608 16.86 299.508 17.22ZM356.732 48C356.192 46.62 355.172 45.54 353.672 44.76C352.172 43.98 350.312 43.59 348.092 43.59C345.872 43.59 343.772 44.25 341.792 45.57C339.872 46.89 338.912 48.66 338.912 50.88C338.912 53.1 339.812 54.87 341.612 56.19C343.472 57.45 345.692 58.41 348.272 59.07C350.912 59.73 353.552 60.45 356.192 61.23C358.832 61.95 361.052 63.18 362.852 64.92C364.712 66.6 365.642 68.82 365.642 71.58C365.642 75.6 363.962 78.66 360.602 80.76C357.302 82.86 353.312 83.91 348.632 83.91C345.872 83.91 342.242 83.16 337.742 81.66C333.302 80.16 331.082 78.36 331.082 76.26C331.082 74.7 332.402 73.92 335.042 73.92C335.822 73.92 336.842 74.4 338.102 75.36C341.942 78.18 345.872 79.59 349.892 79.59C352.052 79.59 353.912 79.23 355.472 78.51C358.352 77.13 359.792 74.91 359.792 71.85C359.792 69.99 358.862 68.49 357.002 67.35C355.202 66.21 352.982 65.31 350.342 64.65C347.762 63.99 345.152 63.27 342.512 62.49C339.872 61.71 337.622 60.42 335.762 58.62C333.962 56.76 333.062 54.42 333.062 51.6C333.062 47.94 334.712 44.97 338.012 42.69C341.312 40.41 345.392 39.27 350.252 39.27C353.552 39.27 356.522 40.14 359.162 41.88C361.862 43.56 363.212 46.02 363.212 49.26C363.212 51.42 361.982 52.5 359.522 52.5C358.502 52.5 357.812 52.32 357.452 51.96C357.152 51.6 356.972 50.97 356.912 50.07C356.912 49.11 356.852 48.42 356.732 48ZM373.881 65.37L374.691 25.05C374.691 21.93 374.511 19.8 374.151 18.66C375.231 17.7 376.881 17.22 379.101 17.22C380.001 23.64 380.451 31.89 380.451 41.97C380.451 44.97 380.181 51.93 379.641 62.85C382.461 47.67 387.501 40.08 394.761 40.08C397.341 40.08 399.321 41.46 400.701 44.22C402.141 46.92 403.041 50.22 403.401 54.12C403.761 58.02 404.061 61.92 404.301 65.82C404.901 75.18 406.581 79.86 409.341 79.86C409.401 79.86 409.971 79.68 411.051 79.32C413.451 78.6 414.801 78.42 415.101 78.78C415.101 79.44 414.171 80.28 412.311 81.3C410.451 82.26 408.741 82.74 407.181 82.74C404.541 82.74 402.501 81.39 401.061 78.69C399.681 75.93 398.811 72.6 398.451 68.7C398.151 64.8 397.911 60.93 397.731 57.09C397.611 53.19 397.221 49.89 396.561 47.19C395.901 44.43 394.791 43.05 393.231 43.05C391.311 43.05 389.541 45.15 387.921 49.35C386.361 53.49 385.131 58.08 384.231 63.12C383.331 68.16 382.221 72.78 380.901 76.98C379.641 81.12 378.351 83.19 377.031 83.19C374.931 83.19 373.881 77.25 373.881 65.37ZM421.877 65.73C421.757 66.93 421.697 67.74 421.697 68.16C421.697 71.76 422.777 74.55 424.937 76.53C427.157 78.51 429.767 79.5 432.767 79.5C435.767 79.5 438.197 79.08 440.057 78.24C441.977 77.4 443.357 76.5 444.197 75.54C446.357 72.84 448.337 71.49 450.137 71.49C450.797 71.49 451.577 71.67 452.477 72.03C451.877 74.97 449.597 77.67 445.637 80.13C441.737 82.53 436.817 83.73 430.877 83.73C426.677 83.73 423.047 82.41 419.987 79.77C416.987 77.07 415.487 73.41 415.487 68.79C415.487 64.17 416.387 59.7 418.187 55.38C420.047 51 422.687 47.28 426.107 44.22C429.587 41.1 433.097 39.54 436.637 39.54C440.237 39.54 443.117 40.29 445.277 41.79C447.497 43.23 448.607 45.36 448.607 48.18C448.607 53.4 446.267 57.72 441.587 61.14C436.967 64.5 432.047 66.18 426.827 66.18C425.447 66.18 423.797 66.03 421.877 65.73ZM428.717 62.76C431.537 62.76 434.057 61.86 436.277 60.06C438.497 58.26 440.057 56.37 440.957 54.39C441.917 52.41 442.397 50.61 442.397 48.99C442.397 47.37 441.767 45.96 440.507 44.76C439.247 43.5 437.777 42.87 436.097 42.87C433.097 42.87 430.307 44.94 427.727 49.08C425.207 53.22 423.407 57.51 422.327 61.95C424.967 62.49 427.097 62.76 428.717 62.76ZM462.796 30.18C462.796 24.24 461.986 20.25 460.366 18.21C461.146 17.07 462.496 16.5 464.416 16.5C464.776 16.5 465.166 16.53 465.586 16.59C467.086 18.09 467.836 22.44 467.836 29.64C467.836 33.54 467.656 38.07 467.296 43.23C466.576 52.23 466.216 58.83 466.216 63.03C466.216 74.37 468.406 80.04 472.786 80.04C472.786 80.04 473.896 79.83 476.116 79.41C476.656 79.41 477.106 79.65 477.466 80.13C477.286 82.29 475.516 83.37 472.156 83.37C468.856 83.37 466.306 82.38 464.506 80.4C462.706 78.36 461.566 75.84 461.086 72.84C460.666 69.78 460.456 67.26 460.456 65.28C460.456 63.3 460.486 61.14 460.546 58.8C460.606 56.4 460.876 52.98 461.356 48.54C462.316 39.54 462.796 33.42 462.796 30.18ZM477.041 40.71C477.581 39.57 478.751 39 480.551 39C481.331 39 481.991 39.18 482.531 39.54C484.211 44.16 485.861 48.81 487.481 53.49C490.541 62.07 493.391 68.85 496.031 73.83C497.291 66.51 499.721 59.13 503.321 51.69C506.981 44.25 510.311 40.53 513.311 40.53C514.211 40.53 515.111 40.74 516.011 41.16C509.111 50.22 504.161 62.22 501.161 77.16C500.561 80.64 499.901 82.62 499.181 83.1C498.401 83.64 497.591 83.91 496.751 83.91C495.911 83.91 495.251 83.73 494.771 83.37C494.351 83.01 494.021 82.65 493.781 82.29C493.601 81.93 493.331 81.33 492.971 80.49C492.671 79.65 492.431 79.08 492.251 78.78C486.131 67.32 481.061 54.63 477.041 40.71ZM524.533 65.73C524.413 66.93 524.353 67.74 524.353 68.16C524.353 71.76 525.433 74.55 527.593 76.53C529.813 78.51 532.423 79.5 535.423 79.5C538.423 79.5 540.853 79.08 542.713 78.24C544.633 77.4 546.013 76.5 546.853 75.54C549.013 72.84 550.993 71.49 552.793 71.49C553.453 71.49 554.233 71.67 555.133 72.03C554.533 74.97 552.253 77.67 548.293 80.13C544.393 82.53 539.473 83.73 533.533 83.73C529.333 83.73 525.703 82.41 522.643 79.77C519.643 77.07 518.143 73.41 518.143 68.79C518.143 64.17 519.043 59.7 520.843 55.38C522.703 51 525.343 47.28 528.763 44.22C532.243 41.1 535.753 39.54 539.293 39.54C542.893 39.54 545.773 40.29 547.933 41.79C550.153 43.23 551.263 45.36 551.263 48.18C551.263 53.4 548.923 57.72 544.243 61.14C539.623 64.5 534.703 66.18 529.483 66.18C528.103 66.18 526.453 66.03 524.533 65.73ZM531.373 62.76C534.193 62.76 536.713 61.86 538.933 60.06C541.153 58.26 542.713 56.37 543.613 54.39C544.573 52.41 545.053 50.61 545.053 48.99C545.053 47.37 544.423 45.96 543.163 44.76C541.903 43.5 540.433 42.87 538.753 42.87C535.753 42.87 532.963 44.94 530.383 49.08C527.863 53.22 526.063 57.51 524.983 61.95C527.623 62.49 529.753 62.76 531.373 62.76ZM585.072 48C584.532 46.62 583.512 45.54 582.012 44.76C580.512 43.98 578.652 43.59 576.432 43.59C574.212 43.59 572.112 44.25 570.132 45.57C568.212 46.89 567.252 48.66 567.252 50.88C567.252 53.1 568.152 54.87 569.952 56.19C571.812 57.45 574.032 58.41 576.612 59.07C579.252 59.73 581.892 60.45 584.532 61.23C587.172 61.95 589.392 63.18 591.192 64.92C593.052 66.6 593.982 68.82 593.982 71.58C593.982 75.6 592.302 78.66 588.942 80.76C585.642 82.86 581.652 83.91 576.972 83.91C574.212 83.91 570.582 83.16 566.082 81.66C561.642 80.16 559.422 78.36 559.422 76.26C559.422 74.7 560.742 73.92 563.382 73.92C564.162 73.92 565.182 74.4 566.442 75.36C570.282 78.18 574.212 79.59 578.232 79.59C580.392 79.59 582.252 79.23 583.812 78.51C586.692 77.13 588.132 74.91 588.132 71.85C588.132 69.99 587.202 68.49 585.342 67.35C583.542 66.21 581.322 65.31 578.682 64.65C576.102 63.99 573.492 63.27 570.852 62.49C568.212 61.71 565.962 60.42 564.102 58.62C562.302 56.76 561.402 54.42 561.402 51.6C561.402 47.94 563.052 44.97 566.352 42.69C569.652 40.41 573.732 39.27 578.592 39.27C581.892 39.27 584.862 40.14 587.502 41.88C590.202 43.56 591.552 46.02 591.552 49.26C591.552 51.42 590.322 52.5 587.862 52.5C586.842 52.5 586.152 52.32 585.792 51.96C585.492 51.6 585.312 50.97 585.252 50.07C585.252 49.11 585.192 48.42 585.072 48Z"
      fill="black"
    />
    <path
      d="M36 0.44397L0.238037 43.8346L53.1656 106.299L88.4505 64.815L36 0.44397Z"
      fill="#564FCC"
    />
    <path
      opacity="0.1"
      d="M36 0.44397L0.238037 43.8346L53.1656 106.299L88.4505 64.815L36 0.44397Z"
      fill="black"
    />
    <path
      d="M1.66895 44.3115C2.45996 42.8876 3.44091 41.5778 4.58475 40.4181L37.4306 7.11925C37.4306 7.11925 48.8744 5.21197 51.2586 10.9338L9.29813 45.2652L1.66895 44.3115Z"
      fill="#F2F2F2"
    />
    <path
      d="M0 43.5965L48.6358 117.981C48.6358 117.981 53.404 121.319 58.1721 119.411L108 85.7954L55.0733 5.68896L7.39077 42.881L0 43.5965Z"
      fill="#564FCC"
    />
  </g>
  <defs>
    <clipPath id="clip0_233_15">
      <rect width="606" height="120" fill="white" />
    </clipPath>
  </defs>
</svg>
