<svg width="954" height="261" viewBox="0 0 954 261" fill="none" xmlns="http://www.w3.org/2000/svg">
<g clip-path="url(#clip0_233_15)">
<path d="M284.681 165.064L283.657 90.184C283.657 84.7227 294.707 81.992 316.809 81.992C327.219 81.992 335.923 83.9547 342.921 87.88C350.003 91.8053 353.545 97.4373 353.545 104.776C353.545 109.64 351.667 114.248 347.913 118.6C344.158 122.952 339.934 125.725 335.241 126.92C341.129 128.712 346.206 131.315 350.473 134.728C354.825 138.141 357.001 142.579 357.001 148.04C357.001 153.501 354.654 158.323 349.961 162.504C340.915 170.44 327.006 174.408 308.233 174.408C292.531 174.408 284.681 171.293 284.681 165.064ZM293.001 127.304C298.291 125.256 304.137 124.232 310.537 124.232C313.523 124.232 316.51 124.232 319.497 124.232C324.019 124.232 329.481 122.227 335.881 118.216C342.366 114.12 345.609 110.237 345.609 106.568C345.609 101.107 342.195 96.7973 335.369 93.64C328.542 90.3973 320.99 88.776 312.713 88.776C304.435 88.776 297.737 89.7147 292.617 91.592C292.617 93.128 292.617 95.3893 292.617 98.376C292.617 101.277 292.659 106.141 292.745 112.968C292.915 119.709 293.001 124.488 293.001 127.304ZM347.657 148.04C347.657 140.616 339.635 135.197 323.593 131.784C315.401 134.173 307.635 135.368 300.297 135.368C297.907 135.368 295.561 135.24 293.257 134.984C293.513 145.139 293.641 155.464 293.641 165.96C298.59 167.069 303.582 167.624 308.617 167.624C313.737 167.624 318.259 167.325 322.185 166.728C326.195 166.045 330.163 165.021 334.089 163.656C338.099 162.291 341.342 160.243 343.817 157.512C346.377 154.781 347.657 151.624 347.657 148.04ZM374.446 119.88C378.798 113.224 385.07 109.896 393.262 109.896C401.454 109.896 407.982 113.224 412.846 119.88C417.795 126.536 420.27 134.131 420.27 142.664C420.27 151.112 417.582 158.28 412.206 164.168C406.83 170.056 400.003 173 391.726 173C383.448 173 377.432 170.696 373.678 166.088C369.923 161.395 368.046 154.824 368.046 146.376C368.046 135.368 370.179 126.536 374.446 119.88ZM380.078 126.664C378.968 129.992 378.115 133.32 377.518 136.648C377.006 139.976 376.75 143.091 376.75 145.992C376.75 148.808 376.963 151.411 377.39 153.8C377.816 156.104 378.542 158.408 379.566 160.712C380.59 162.931 382.126 164.723 384.174 166.088C386.222 167.368 388.654 168.008 391.47 168.008C397.187 168.008 401.966 165.661 405.806 160.968C409.731 156.275 411.694 150.6 411.694 143.944C411.694 137.288 409.902 130.845 406.318 124.616C402.819 118.301 398.51 115.144 393.39 115.144C390.318 115.144 387.63 116.211 385.326 118.344C383.022 120.477 381.272 123.251 380.078 126.664ZM437.196 119.88C441.548 113.224 447.82 109.896 456.012 109.896C464.204 109.896 470.732 113.224 475.596 119.88C480.545 126.536 483.02 134.131 483.02 142.664C483.02 151.112 480.332 158.28 474.956 164.168C469.58 170.056 462.753 173 454.476 173C446.198 173 440.182 170.696 436.428 166.088C432.673 161.395 430.796 154.824 430.796 146.376C430.796 135.368 432.929 126.536 437.196 119.88ZM442.828 126.664C441.718 129.992 440.865 133.32 440.268 136.648C439.756 139.976 439.5 143.091 439.5 145.992C439.5 148.808 439.713 151.411 440.14 153.8C440.566 156.104 441.292 158.408 442.316 160.712C443.34 162.931 444.876 164.723 446.924 166.088C448.972 167.368 451.404 168.008 454.22 168.008C459.937 168.008 464.716 165.661 468.556 160.968C472.481 156.275 474.444 150.6 474.444 143.944C474.444 137.288 472.652 130.845 469.068 124.616C465.569 118.301 461.26 115.144 456.14 115.144C453.068 115.144 450.38 116.211 448.076 118.344C445.772 120.477 444.022 123.251 442.828 126.664ZM505.962 78.024C506.047 83.9973 506.09 88.4773 506.09 91.464C506.09 94.3653 506.047 97.2667 505.962 100.168C505.962 103.069 505.834 108.701 505.578 117.064C505.322 125.341 505.151 131.912 505.066 136.776C508.308 134.557 512.191 131.144 516.714 126.536C521.236 121.843 525.332 117.832 529.002 114.504C534.804 109.299 538.943 107.72 541.418 109.768C542.356 110.536 542.655 111.261 542.314 111.944C541.46 113.736 539.498 115.912 536.426 118.472C533.439 121.032 529.898 123.933 525.802 127.176C521.706 130.419 518.463 133.405 516.074 136.136C522.303 136.989 527.295 140.488 531.05 146.632C532.671 149.448 534.25 152.264 535.786 155.08C539.711 162.504 543.978 167.539 548.586 170.184C546.879 171.891 544.916 172.744 542.698 172.744C540.479 172.744 538.26 171.677 536.042 169.544C533.908 167.411 532.031 164.808 530.41 161.736C528.874 158.664 527.295 155.592 525.674 152.52C522.004 145.096 517.738 141.384 512.874 141.384C510.57 141.384 508.607 142.152 506.986 143.688C505.364 145.139 504.554 146.675 504.554 148.296C504.554 158.536 504.383 166.131 504.042 171.08C502.847 172.701 501.567 173.512 500.202 173.512C499.775 173.512 499.306 173.427 498.794 173.256C496.916 172.488 495.978 170.909 495.978 168.52C496.063 166.131 496.319 158.877 496.746 146.76C497.684 115.784 498.154 95.9867 498.154 87.368C498.154 83.3573 498.538 80.6693 499.306 79.304C500.159 77.9387 501.14 77.256 502.25 77.256C503.444 77.256 504.682 77.512 505.962 78.024ZM587.347 121.8C586.579 119.837 585.128 118.301 582.995 117.192C580.861 116.083 578.216 115.528 575.059 115.528C571.901 115.528 568.915 116.467 566.099 118.344C563.368 120.221 562.003 122.739 562.003 125.896C562.003 129.053 563.283 131.571 565.843 133.448C568.488 135.24 571.645 136.605 575.315 137.544C579.069 138.483 582.824 139.507 586.579 140.616C590.333 141.64 593.491 143.389 596.051 145.864C598.696 148.253 600.019 151.411 600.019 155.336C600.019 161.053 597.629 165.405 592.851 168.392C588.157 171.379 582.483 172.872 575.827 172.872C571.901 172.872 566.739 171.805 560.339 169.672C554.024 167.539 550.867 164.979 550.867 161.992C550.867 159.773 552.744 158.664 556.499 158.664C557.608 158.664 559.059 159.347 560.851 160.712C566.312 164.723 571.901 166.728 577.619 166.728C580.691 166.728 583.336 166.216 585.555 165.192C589.651 163.229 591.699 160.072 591.699 155.72C591.699 153.075 590.376 150.941 587.731 149.32C585.171 147.699 582.013 146.419 578.259 145.48C574.589 144.541 570.877 143.517 567.123 142.408C563.368 141.299 560.168 139.464 557.523 136.904C554.963 134.259 553.683 130.931 553.683 126.92C553.683 121.715 556.029 117.491 560.723 114.248C565.416 111.005 571.219 109.384 578.131 109.384C582.824 109.384 587.048 110.621 590.803 113.096C594.643 115.485 596.563 118.984 596.563 123.592C596.563 126.664 594.813 128.2 591.315 128.2C589.864 128.2 588.883 127.944 588.371 127.432C587.944 126.92 587.688 126.024 587.603 124.744C587.603 123.379 587.517 122.397 587.347 121.8ZM611.737 146.504L612.889 89.16C612.889 84.7227 612.633 81.6933 612.121 80.072C613.657 78.7067 616.003 78.024 619.161 78.024C620.441 87.1547 621.081 98.888 621.081 113.224C621.081 117.491 620.697 127.389 619.929 142.92C623.939 121.331 631.107 110.536 641.433 110.536C645.102 110.536 647.918 112.499 649.881 116.424C651.929 120.264 653.209 124.957 653.721 130.504C654.233 136.051 654.659 141.597 655.001 147.144C655.854 160.456 658.243 167.112 662.169 167.112C662.254 167.112 663.065 166.856 664.601 166.344C668.014 165.32 669.934 165.064 670.361 165.576C670.361 166.515 669.038 167.709 666.393 169.16C663.747 170.525 661.315 171.208 659.097 171.208C655.342 171.208 652.441 169.288 650.393 165.448C648.43 161.523 647.193 156.787 646.681 151.24C646.254 145.693 645.913 140.189 645.657 134.728C645.486 129.181 644.931 124.488 643.993 120.648C643.054 116.723 641.475 114.76 639.257 114.76C636.526 114.76 634.009 117.747 631.705 123.72C629.486 129.608 627.737 136.136 626.457 143.304C625.177 150.472 623.598 157.043 621.721 163.016C619.929 168.904 618.094 171.848 616.217 171.848C613.23 171.848 611.737 163.4 611.737 146.504ZM679.997 147.016C679.826 148.723 679.741 149.875 679.741 150.472C679.741 155.592 681.277 159.56 684.349 162.376C687.506 165.192 691.218 166.6 695.485 166.6C699.751 166.6 703.207 166.003 705.853 164.808C708.583 163.613 710.546 162.333 711.741 160.968C714.813 157.128 717.629 155.208 720.189 155.208C721.127 155.208 722.237 155.464 723.517 155.976C722.663 160.157 719.421 163.997 713.789 167.496C708.242 170.909 701.245 172.616 692.797 172.616C686.823 172.616 681.661 170.739 677.309 166.984C673.042 163.144 670.909 157.939 670.909 151.368C670.909 144.797 672.189 138.44 674.749 132.296C677.394 126.067 681.149 120.776 686.013 116.424C690.962 111.987 695.954 109.768 700.989 109.768C706.109 109.768 710.205 110.835 713.277 112.968C716.434 115.016 718.013 118.045 718.013 122.056C718.013 129.48 714.685 135.624 708.029 140.488C701.458 145.267 694.461 147.656 687.037 147.656C685.074 147.656 682.727 147.443 679.997 147.016ZM689.725 142.792C693.735 142.792 697.319 141.512 700.477 138.952C703.634 136.392 705.853 133.704 707.133 130.888C708.498 128.072 709.181 125.512 709.181 123.208C709.181 120.904 708.285 118.899 706.493 117.192C704.701 115.4 702.61 114.504 700.221 114.504C695.954 114.504 691.986 117.448 688.317 123.336C684.733 129.224 682.173 135.325 680.637 141.64C684.391 142.408 687.421 142.792 689.725 142.792ZM738.193 96.456C738.193 88.008 737.041 82.3333 734.737 79.432C735.846 77.8107 737.766 77 740.497 77C741.009 77 741.563 77.0427 742.161 77.128C744.294 79.2613 745.361 85.448 745.361 95.688C745.361 101.235 745.105 107.677 744.593 115.016C743.569 127.816 743.057 137.203 743.057 143.176C743.057 159.304 746.171 167.368 752.401 167.368C752.401 167.368 753.979 167.069 757.137 166.472C757.905 166.472 758.545 166.813 759.057 167.496C758.801 170.568 756.283 172.104 751.505 172.104C746.811 172.104 743.185 170.696 740.625 167.88C738.065 164.979 736.443 161.395 735.761 157.128C735.163 152.776 734.865 149.192 734.865 146.376C734.865 143.56 734.907 140.488 734.993 137.16C735.078 133.747 735.462 128.883 736.145 122.568C737.51 109.768 738.193 101.064 738.193 96.456ZM758.453 111.432C759.221 109.811 760.885 109 763.445 109C764.554 109 765.493 109.256 766.261 109.768C768.65 116.339 770.997 122.952 773.301 129.608C777.653 141.811 781.706 151.453 785.461 158.536C787.253 148.125 790.709 137.629 795.829 127.048C801.034 116.467 805.77 111.176 810.037 111.176C811.317 111.176 812.597 111.475 813.877 112.072C804.063 124.957 797.023 142.024 792.757 163.272C791.903 168.221 790.965 171.037 789.941 171.72C788.831 172.488 787.679 172.872 786.485 172.872C785.29 172.872 784.351 172.616 783.669 172.104C783.071 171.592 782.602 171.08 782.261 170.568C782.005 170.056 781.621 169.203 781.109 168.008C780.682 166.813 780.341 166.003 780.085 165.576C771.381 149.277 764.17 131.229 758.453 111.432ZM825.997 147.016C825.826 148.723 825.741 149.875 825.741 150.472C825.741 155.592 827.277 159.56 830.349 162.376C833.506 165.192 837.218 166.6 841.485 166.6C845.751 166.6 849.207 166.003 851.853 164.808C854.583 163.613 856.546 162.333 857.741 160.968C860.813 157.128 863.629 155.208 866.189 155.208C867.127 155.208 868.237 155.464 869.517 155.976C868.663 160.157 865.421 163.997 859.789 167.496C854.242 170.909 847.245 172.616 838.797 172.616C832.823 172.616 827.661 170.739 823.309 166.984C819.042 163.144 816.909 157.939 816.909 151.368C816.909 144.797 818.189 138.44 820.749 132.296C823.394 126.067 827.149 120.776 832.013 116.424C836.962 111.987 841.954 109.768 846.989 109.768C852.109 109.768 856.205 110.835 859.277 112.968C862.434 115.016 864.013 118.045 864.013 122.056C864.013 129.48 860.685 135.624 854.029 140.488C847.458 145.267 840.461 147.656 833.037 147.656C831.074 147.656 828.727 147.443 825.997 147.016ZM835.725 142.792C839.735 142.792 843.319 141.512 846.477 138.952C849.634 136.392 851.853 133.704 853.133 130.888C854.498 128.072 855.181 125.512 855.181 123.208C855.181 120.904 854.285 118.899 852.493 117.192C850.701 115.4 848.61 114.504 846.221 114.504C841.954 114.504 837.986 117.448 834.317 123.336C830.733 129.224 828.173 135.325 826.637 141.64C830.391 142.408 833.421 142.792 835.725 142.792ZM912.097 121.8C911.329 119.837 909.878 118.301 907.745 117.192C905.611 116.083 902.966 115.528 899.809 115.528C896.651 115.528 893.665 116.467 890.849 118.344C888.118 120.221 886.753 122.739 886.753 125.896C886.753 129.053 888.033 131.571 890.593 133.448C893.238 135.24 896.395 136.605 900.065 137.544C903.819 138.483 907.574 139.507 911.329 140.616C915.083 141.64 918.241 143.389 920.801 145.864C923.446 148.253 924.769 151.411 924.769 155.336C924.769 161.053 922.379 165.405 917.601 168.392C912.907 171.379 907.233 172.872 900.577 172.872C896.651 172.872 891.489 171.805 885.089 169.672C878.774 167.539 875.617 164.979 875.617 161.992C875.617 159.773 877.494 158.664 881.249 158.664C882.358 158.664 883.809 159.347 885.601 160.712C891.062 164.723 896.651 166.728 902.369 166.728C905.441 166.728 908.086 166.216 910.305 165.192C914.401 163.229 916.449 160.072 916.449 155.72C916.449 153.075 915.126 150.941 912.481 149.32C909.921 147.699 906.763 146.419 903.009 145.48C899.339 144.541 895.627 143.517 891.873 142.408C888.118 141.299 884.918 139.464 882.273 136.904C879.713 134.259 878.433 130.931 878.433 126.92C878.433 121.715 880.779 117.491 885.473 114.248C890.166 111.005 895.969 109.384 902.881 109.384C907.574 109.384 911.798 110.621 915.553 113.096C919.393 115.485 921.313 118.984 921.313 123.592C921.313 126.664 919.563 128.2 916.065 128.2C914.614 128.2 913.633 127.944 913.121 127.432C912.694 126.92 912.438 126.024 912.353 124.744C912.353 123.379 912.267 122.397 912.097 121.8Z" fill="black"/>
<path d="M78.6918 0L0.520996 94.846L116.213 231.384L193.342 140.706L78.6918 0Z" fill="#564FCC"/>
<path opacity="0.1" d="M78.6918 0L0.520996 94.846L116.213 231.384L193.342 140.706L78.6918 0Z" fill="black"/>
<path d="M3.64795 95.8886C5.37701 92.7762 7.52123 89.913 10.0215 87.3781L81.8182 14.5914C81.8182 14.5914 106.833 10.4223 112.044 22.9295L20.3243 97.9732L3.64795 95.8886Z" fill="#F2F2F2"/>
<path d="M0 94.3255L106.311 256.919C106.311 256.919 116.734 264.216 127.156 260.046L236.073 186.567L120.383 11.4647L16.1552 92.7615L0 94.3255Z" fill="#564FCC"/>
</g>
<defs>
<clipPath id="clip0_233_15">
<rect width="954" height="261" fill="white"/>
</clipPath>
</defs>
</svg>
