<svg viewBox="0 0 256 256" fill="none" xmlns="http://www.w3.org/2000/svg">
  <path d="M89.6006 0L13.3086 92.5665L126.22 225.822L201.495 137.325L89.6006 0Z" fill="#6C63FF" />
  <path opacity="0.1" d="M89.6006 0L13.3086 92.5665L126.22 225.822L201.495 137.325L89.6006 0Z"
    fill="black" />
  <path
    d="M16.3604 93.5841C18.0479 90.5465 20.1405 87.7522 22.5807 85.2782L92.6519 14.2409C92.6519 14.2409 117.065 10.172 122.152 22.3786L32.6359 95.6186L16.3604 93.5841Z"
    fill="#F2F2F2" />
  <path
    d="M12.8 92.0584L116.556 250.744C116.556 250.744 126.728 257.865 136.901 253.796L243.2 182.082L130.289 11.1892L28.567 90.532L12.8 92.0584Z"
    fill="#6C63FF" />
  <path d="M117.604 35.9539L52.4966 82.7387L53.4586 84.0774L118.566 37.2926L117.604 35.9539Z"
    fill="#3F3D56" />
  <path d="M51.6334 100.25L50.2583 101.159L135.705 230.347L137.08 229.437L51.6334 100.25Z"
    fill="#3F3D56" />
  <path d="M215.239 182.425L146.083 233.306L147.061 234.635L216.216 183.753L215.239 182.425Z"
    fill="#3F3D56" />
  <path d="M129.949 38.1836L128.595 39.1251L217.094 166.277L218.446 165.336L129.949 38.1836Z"
    fill="#3F3D56" />
  <path d="M102.612 13.2324L22.1199 87.1061L22.8073 87.8552L103.299 13.9814L102.612 13.2324Z"
    fill="#3F3D56" />
  <path d="M109.318 13.8657L25.1926 88.1324L25.8662 88.8953L109.991 14.6287L109.318 13.8657Z"
    fill="#3F3D56" />
  <path d="M114.58 15.3459L27.2505 88.139L27.9021 88.9206L115.231 16.1278L114.58 15.3459Z"
    fill="#3F3D56" />
</svg>