<?xml version="1.0" encoding="UTF-8" standalone="no"?>
<!DOCTYPE svg PUBLIC "-//W3C//DTD SVG 1.1//EN" "http://www.w3.org/Graphics/SVG/1.1/DTD/svg11.dtd">
<svg width="100%" height="100%" viewBox="0 0 512 512" version="1.1" xmlns="http://www.w3.org/2000/svg" xmlns:xlink="http://www.w3.org/1999/xlink" xml:space="preserve" xmlns:serif="http://www.serif.com/" style="fill-rule:evenodd;clip-rule:evenodd;stroke-linejoin:round;stroke-miterlimit:2;">
    <g id="Laravel.svg" transform="matrix(6.35401,0,0,6.35401,172.08,169.211)">
        <g transform="matrix(1,0,0,1,-25,-26)">
            <clipPath id="_clip1">
                <rect x="0" y="0" width="50" height="52"/>
            </clipPath>
            <g clip-path="url(#_clip1)">
                <path d="M49.626,11.564C49.644,11.632 49.654,11.702 49.654,11.773L49.654,22.745C49.654,23.031 49.5,23.297 49.252,23.439L40.043,28.741L40.043,39.25C40.043,39.536 39.891,39.8 39.643,39.944L20.42,51.01C20.376,51.035 20.328,51.051 20.28,51.068C20.262,51.074 20.245,51.085 20.226,51.09C20.092,51.125 19.95,51.125 19.816,51.09C19.794,51.084 19.774,51.072 19.753,51.064C19.709,51.048 19.663,51.034 19.621,51.01L0.402,39.944C0.154,39.801 0,39.536 -0,39.25L0,6.334C0,6.262 0.01,6.192 0.028,6.124C0.034,6.101 0.048,6.08 0.056,6.057C0.071,6.015 0.085,5.972 0.107,5.933C0.122,5.907 0.144,5.886 0.162,5.862C0.185,5.83 0.206,5.797 0.233,5.769C0.256,5.746 0.286,5.729 0.312,5.709C0.341,5.685 0.367,5.659 0.4,5.64L0.401,5.64L10.011,0.107C10.258,-0.035 10.564,-0.035 10.811,0.107L20.421,5.64L20.423,5.64C20.455,5.66 20.482,5.685 20.511,5.708C20.537,5.728 20.566,5.746 20.589,5.768C20.617,5.797 20.637,5.83 20.661,5.862C20.678,5.886 20.701,5.907 20.715,5.933C20.738,5.973 20.751,6.015 20.767,6.057C20.775,6.08 20.789,6.101 20.795,6.125C20.813,6.193 20.823,6.263 20.823,6.334L20.823,26.893L28.831,22.282L28.831,11.772C28.831,11.702 28.841,11.631 28.859,11.564C28.866,11.54 28.879,11.519 28.887,11.496C28.903,11.454 28.917,11.411 28.939,11.372C28.954,11.346 28.976,11.325 28.993,11.301C29.017,11.269 29.037,11.236 29.065,11.208C29.088,11.185 29.117,11.168 29.143,11.148C29.173,11.124 29.199,11.098 29.231,11.079L29.232,11.079L38.843,5.546C39.09,5.403 39.396,5.403 39.643,5.546L49.253,11.079C49.287,11.099 49.313,11.124 49.343,11.147C49.368,11.167 49.397,11.185 49.42,11.207C49.448,11.236 49.468,11.269 49.492,11.301C49.51,11.325 49.532,11.346 49.546,11.372C49.569,11.411 49.582,11.454 49.598,11.496C49.607,11.519 49.62,11.54 49.626,11.564ZM48.052,22.282L48.052,13.158L44.689,15.094L40.043,17.769L40.043,26.893L48.053,22.282L48.052,22.282ZM38.442,38.787L38.442,29.657L33.872,32.267L20.822,39.715L20.822,48.931L38.442,38.787ZM1.602,7.719L1.602,38.787L19.22,48.93L19.22,39.716L10.016,34.507L10.013,34.505L10.009,34.503C9.978,34.485 9.952,34.459 9.923,34.437C9.898,34.417 9.869,34.401 9.847,34.379L9.845,34.376C9.819,34.351 9.801,34.32 9.779,34.292C9.759,34.265 9.735,34.242 9.719,34.214L9.718,34.211C9.7,34.181 9.689,34.145 9.676,34.111C9.663,34.081 9.646,34.053 9.638,34.021L9.638,34.02C9.628,33.982 9.626,33.942 9.622,33.903C9.618,33.873 9.61,33.843 9.61,33.813L9.61,12.33L4.965,9.654L1.602,7.72L1.602,7.719ZM10.412,1.725L2.405,6.334L10.41,10.943L18.416,6.333L10.41,1.725L10.412,1.725ZM14.576,30.489L19.221,27.815L19.221,7.719L15.858,9.655L11.212,12.33L11.212,32.426L14.576,30.489ZM39.243,7.164L31.237,11.773L39.243,16.382L47.248,11.772L39.243,7.164ZM38.442,17.769L33.796,15.094L30.433,13.158L30.433,22.282L35.078,24.956L38.442,26.893L38.442,17.769ZM20.02,38.33L31.763,31.626L37.633,28.276L29.633,23.67L20.422,28.973L12.027,33.806L20.02,38.33Z" style="fill:rgb(255,45,32);"/>
            </g>
        </g>
    </g>
    <g transform="matrix(2.34858e-17,-0.383552,0.383552,2.34858e-17,148.495,493.763)">
        <path d="M399.641,59.525L215.643,388.545C211.844,395.338 202.084,395.378 198.228,388.618L10.582,59.556C6.381,52.19 12.68,43.267 21.028,44.759L205.223,77.682C206.398,77.892 207.601,77.89 208.776,77.676L389.119,44.806C397.439,43.289 403.768,52.143 399.641,59.525Z" style="fill:url(#_Linear2);fill-rule:nonzero;"/>
    </g>
    <g transform="matrix(2.34858e-17,-0.383552,0.383552,2.34858e-17,20.5142,493.763)">
        <path d="M399.641,59.525L215.643,388.545C211.844,395.338 202.084,395.378 198.228,388.618L10.582,59.556C6.381,52.19 12.68,43.267 21.028,44.759L205.223,77.682C206.398,77.892 207.601,77.89 208.776,77.676L389.119,44.806C397.439,43.289 403.768,52.143 399.641,59.525Z" style="fill:url(#_Linear3);fill-rule:nonzero;"/>
    </g>
    <g id="TypeScript-logo.svg" serif:id="TypeScript logo.svg" transform="matrix(0.278939,2.4255e-48,-2.4255e-48,0.278939,429.676,92.0737)">
        <g transform="matrix(1,0,0,1,-256,-256)">
            <path d="M512,50C512,22.404 489.596,0 462,0L50,0C22.404,0 0,22.404 0,50L0,462C0,489.596 22.404,512 50,512L462,512C489.596,512 512,489.596 512,462L512,50Z" style="fill:rgb(49,120,198);"/>
            <path d="M317,407L317,457C325.1,461.2 335,464.3 346,466.4C357,468.5 369,469.5 381,469.5C393,469.5 404,468.4 415,466.1C426,463.8 435,460 443,455.1C451.1,449.8 458,443.1 462,434.1C466,425.1 469.1,415.1 469.1,402.1C469.1,393 467.7,385.1 465,378.1C462.3,371.1 458.4,365.1 453,360.1C447.9,354.8 442,350.1 435,346.1C428,342.1 420,337.9 411,334.1C404.4,331.4 399,328.8 393,326.2C387.8,323.6 383.3,321 380,318.4C376.3,315.7 373.5,312.9 371.5,310C369.5,307 368.5,303.7 368.5,300C368.5,296.6 369.39,293.5 371.2,290.7C373.01,287.9 375.5,285.6 378.7,283.6C381.9,281.6 385.9,280.1 390.7,279C395.4,277.9 400.6,277.4 406.7,277.4C410.9,277.4 415.3,277.71 419.7,278.34C424.3,278.97 429,279.94 433.7,281.24C438.4,282.54 443,284.14 447.7,286.14C452.1,288.14 456.2,290.44 459.7,293.04L459.7,246.04C452.1,243.14 443.7,240.94 434.7,239.54C425.7,238.14 415.7,237.44 403.7,237.44C391.7,237.44 380.7,238.74 369.7,241.24C358.7,243.74 349.7,247.74 341.7,253.24C333.6,258.64 327.7,265.24 322.7,274.24C318,282.64 315.7,292.24 315.7,304.24C315.7,319.24 320,332.24 328.7,342.24C337.3,353.24 350.7,361.24 367.7,369.24C374.6,372.04 380.7,374.84 386.7,377.54C392.7,380.24 397.7,383.04 401.7,385.94C406,388.84 409.4,392.04 411.7,395.44C414.2,398.84 415.5,402.84 415.5,407.44C415.5,410.64 414.72,413.64 413.2,416.44C411.68,419.24 409.3,421.64 406.1,423.64C402.9,425.64 399,427.24 394.1,428.44C389.4,429.54 384.1,430.14 377.1,430.14C366.1,430.14 355.1,428.24 345.1,424.44C334.1,420.64 324.1,414.94 315.1,407.44L317,407ZM233,284L297,284L297,243L118,243L118,284L182,284L182,467L233,467L233,284Z" style="fill:white;"/>
        </g>
    </g>
    <g transform="matrix(0.865332,-3.10764e-32,3.10764e-32,0.865332,194.589,193.944)">
        <path d="M292.965,1.574L156.801,28.255C154.563,28.694 152.906,30.59 152.771,32.866L144.395,174.33C144.198,177.662 147.258,180.248 150.51,179.498L188.42,170.749C191.967,169.931 195.172,173.055 194.443,176.622L183.18,231.775C182.422,235.487 185.907,238.661 189.532,237.56L212.947,230.446C216.577,229.344 220.065,232.527 219.297,236.242L201.398,322.875C200.278,328.294 207.486,331.249 210.492,326.603L212.5,323.5L323.454,102.072C325.312,98.365 322.108,94.137 318.036,94.923L279.014,102.454C275.347,103.161 272.227,99.746 273.262,96.158L298.731,7.867C299.767,4.273 296.636,0.855 292.965,1.574Z" style="fill:url(#_Linear4);fill-rule:nonzero;"/>
    </g>
    <defs>
        <linearGradient id="_Linear2" x1="0" y1="0" x2="1" y2="0" gradientUnits="userSpaceOnUse" gradientTransform="matrix(229,311,-311,229,6.00017,32.9999)"><stop offset="0" style="stop-color:rgb(65,209,255);stop-opacity:1"/><stop offset="1" style="stop-color:rgb(189,52,254);stop-opacity:1"/></linearGradient>
        <linearGradient id="_Linear3" x1="0" y1="0" x2="1" y2="0" gradientUnits="userSpaceOnUse" gradientTransform="matrix(229,311,-311,229,6.00017,32.9999)"><stop offset="0" style="stop-color:rgb(65,209,255);stop-opacity:1"/><stop offset="1" style="stop-color:rgb(189,52,254);stop-opacity:1"/></linearGradient>
        <linearGradient id="_Linear4" x1="0" y1="0" x2="1" y2="0" gradientUnits="userSpaceOnUse" gradientTransform="matrix(41.425,284.171,-284.171,41.425,194.651,8.81818)"><stop offset="0" style="stop-color:rgb(255,234,131);stop-opacity:1"/><stop offset="0.08" style="stop-color:rgb(255,221,53);stop-opacity:1"/><stop offset="1" style="stop-color:rgb(255,168,0);stop-opacity:1"/></linearGradient>
    </defs>
</svg>
