<?xml version="1.0" standalone="no"?>
<!DOCTYPE svg PUBLIC "-//W3C//DTD SVG 20010904//EN"
 "http://www.w3.org/TR/2001/REC-SVG-20010904/DTD/svg10.dtd">
<svg version="1.0" xmlns="http://www.w3.org/2000/svg"
 width="700.000000pt" height="700.000000pt" viewBox="0 0 700.000000 700.000000"
 preserveAspectRatio="xMidYMid meet">
<metadata>
Created by potrace 1.14, written by Peter Selinger 2001-2017
</metadata>
<g transform="translate(0.000000,700.000000) scale(0.100000,-0.100000)"
fill="#000000" stroke="none">
<path d="M2425 6972 c-10 -15 -71 -90 -135 -167 -135 -163 -358 -432 -405
-490 -106 -130 -290 -354 -309 -375 -11 -14 -41 -50 -66 -80 -25 -30 -53 -64
-62 -75 -9 -11 -96 -117 -193 -235 -97 -118 -192 -233 -210 -255 -58 -70 -237
-286 -330 -400 -49 -61 -94 -115 -100 -121 -5 -6 -59 -72 -120 -147 -60 -74
-117 -139 -126 -143 -14 -8 3 -38 100 -184 64 -97 145 -221 181 -275 35 -55
128 -197 205 -315 78 -118 163 -249 190 -290 27 -41 105 -160 173 -265 69
-104 177 -270 241 -368 64 -98 161 -246 216 -330 55 -84 154 -236 220 -337 66
-102 123 -186 127 -188 5 -2 8 -8 8 -12 0 -8 33 -60 201 -313 33 -49 59 -93
59 -97 0 -5 4 -10 8 -12 4 -2 19 -21 32 -43 13 -22 28 -44 32 -50 5 -5 59 -88
121 -182 788 -1209 701 -1082 767 -1115 93 -47 213 -79 293 -80 133 -1 173 13
330 119 78 53 237 160 352 238 116 78 329 222 475 320 146 99 357 241 470 317
113 75 210 141 215 145 6 5 66 46 135 92 120 80 495 333 891 601 102 69 197
134 212 145 l26 20 -137 207 c-75 113 -153 230 -172 258 -19 29 -39 59 -45 68
-5 8 -107 162 -225 341 -119 179 -252 382 -298 451 -45 69 -86 132 -92 140 -6
8 -61 92 -122 185 -62 94 -210 318 -330 498 -120 181 -218 332 -218 337 0 4
-3 10 -7 12 -5 2 -33 41 -64 88 -96 145 -465 704 -617 935 -80 121 -267 405
-417 630 -149 226 -286 434 -305 463 -18 28 -35 52 -38 52 -2 0 -61 -44 -131
-98 -69 -54 -131 -101 -137 -105 -7 -4 -28 6 -48 23 -64 50 -178 94 -273 105
-138 16 -179 19 -202 13 -8 -2 -65 59 -133 142 -65 80 -135 164 -156 187 l-37
43 -20 -28z"/>
</g>
</svg>
