<svg viewBox="0 0 256 256" fill="currentColor" xmlns="http://www.w3.org/2000/svg">
  <path d="M127.031 185.628L254.063 106.143V127.515L127.031 207L0 127.515V106.143L127.031 185.628Z"
  />
  <path
    d="M127.031 86.2126C99.4157 86.2126 73.7213 99.9003 58.5928 122.953C59.5533 121.993 60.5139 121.032 61.7146 120.312C97.4947 90.7752 148.884 97.2589 176.979 134.72L195.71 122.953C180.101 100.14 154.407 86.2126 127.031 86.2126Z"
  />
  <path
    d="M127.031 122.713C112.142 122.713 98.2147 129.917 89.5698 142.164C96.2936 137.361 104.218 134.72 112.383 134.72C126.07 134.72 138.317 141.924 146.722 153.69L164.732 142.404C156.087 130.157 141.919 122.713 127.031 122.713Z"
  />
  <path
    d="M41.063 90.7749C93.4124 49.4717 167.374 60.5179 206.756 115.509L206.996 115.989L226.447 103.982C190.427 48.9914 116.946 33.3826 61.9547 69.4029C48.2671 78.2879 36.5004 90.0545 27.3752 103.982C31.6977 99.1796 36.2603 94.8572 41.063 90.7749Z"
  />
</svg>