<svg xmlns="http://www.w3.org/2000/svg" xmlns:xlink="http://www.w3.org/1999/xlink" aria-hidden="true" role="img"
  class="iconify iconify--icon-park-outline" width="32" height="32" preserveAspectRatio="xMidYMid meet"
  viewBox="0 0 48 48">
  <g fill="none">
    <path d="M42 18v22a2 2 0 0 1-2 2H8a2 2 0 0 1-2-2V18" stroke="currentColor" stroke-width="4" stroke-linecap="round"
      stroke-linejoin="round"></path>
    <path d="M6 8a2 2 0 0 1 2-2h32a2 2 0 0 1 2 2v10H6V8z" stroke="currentColor" stroke-width="4"
      stroke-linejoin="round"></path>
    <path fill-rule="evenodd" clip-rule="evenodd" d="M12 14a2 2 0 1 0 0-4a2 2 0 0 0 0 4z" fill="currentColor"></path>
    <path fill-rule="evenodd" clip-rule="evenodd" d="M18 14a2 2 0 1 0 0-4a2 2 0 0 0 0 4z" fill="currentColor"></path>
    <path fill-rule="evenodd" clip-rule="evenodd" d="M24 14a2 2 0 1 0 0-4a2 2 0 0 0 0 4z" fill="currentColor"></path>
  </g>
</svg>