<svg viewBox="0 0 461 95" fill="currentColor"
  xmlns="http://www.w3.org/2000/svg">
  <path
    d="M7.92 75.42L7.2 22.77C7.2 18.93 14.97 17.01 30.51 17.01C37.83 17.01 43.95 18.39 48.87 21.15C53.85 23.91 56.34 27.87 56.34 33.03C56.34 36.45 55.02 39.69 52.38 42.75C49.74 45.81 46.77 47.76 43.47 48.6C47.61 49.86 51.18 51.69 54.18 54.09C57.24 56.49 58.77 59.61 58.77 63.45C58.77 67.29 57.12 70.68 53.82 73.62C47.46 79.2 37.68 81.99 24.48 81.99C13.44 81.99 7.92 79.8 7.92 75.42ZM13.77 48.87C17.49 47.43 21.6 46.71 26.1 46.71C28.2 46.71 30.3 46.71 32.4 46.71C35.58 46.71 39.42 45.3 43.92 42.48C48.48 39.6 50.76 36.87 50.76 34.29C50.76 30.45 48.36 27.42 43.56 25.2C38.76 22.92 33.45 21.78 27.63 21.78C21.81 21.78 17.1 22.44 13.5 23.76C13.5 24.84 13.5 26.43 13.5 28.53C13.5 30.57 13.53 33.99 13.59 38.79C13.71 43.53 13.77 46.89 13.77 48.87ZM52.2 63.45C52.2 58.23 46.56 54.42 35.28 52.02C29.52 53.7 24.06 54.54 18.9 54.54C17.22 54.54 15.57 54.45 13.95 54.27C14.13 61.41 14.22 68.67 14.22 76.05C17.7 76.83 21.21 77.22 24.75 77.22C28.35 77.22 31.53 77.01 34.29 76.59C37.11 76.11 39.9 75.39 42.66 74.43C45.48 73.47 47.76 72.03 49.5 70.11C51.3 68.19 52.2 65.97 52.2 63.45ZM71.036 43.65C74.096 38.97 78.506 36.63 84.266 36.63C90.026 36.63 94.616 38.97 98.036 43.65C101.516 48.33 103.256 53.67 103.256 59.67C103.256 65.61 101.366 70.65 97.586 74.79C93.806 78.93 89.006 81 83.186 81C77.366 81 73.136 79.38 70.496 76.14C67.856 72.84 66.536 68.22 66.536 62.28C66.536 54.54 68.036 48.33 71.036 43.65ZM74.996 48.42C74.216 50.76 73.616 53.1 73.196 55.44C72.836 57.78 72.656 59.97 72.656 62.01C72.656 63.99 72.806 65.82 73.106 67.5C73.406 69.12 73.916 70.74 74.636 72.36C75.356 73.92 76.436 75.18 77.876 76.14C79.316 77.04 81.026 77.49 83.006 77.49C87.026 77.49 90.386 75.84 93.086 72.54C95.846 69.24 97.226 65.25 97.226 60.57C97.226 55.89 95.966 51.36 93.446 46.98C90.986 42.54 87.956 40.32 84.356 40.32C82.196 40.32 80.306 41.07 78.686 42.57C77.066 44.07 75.836 46.02 74.996 48.42ZM115.157 43.65C118.217 38.97 122.627 36.63 128.387 36.63C134.147 36.63 138.737 38.97 142.157 43.65C145.637 48.33 147.377 53.67 147.377 59.67C147.377 65.61 145.487 70.65 141.707 74.79C137.927 78.93 133.127 81 127.307 81C121.487 81 117.257 79.38 114.617 76.14C111.977 72.84 110.657 68.22 110.657 62.28C110.657 54.54 112.157 48.33 115.157 43.65ZM119.117 48.42C118.337 50.76 117.737 53.1 117.317 55.44C116.957 57.78 116.777 59.97 116.777 62.01C116.777 63.99 116.927 65.82 117.227 67.5C117.527 69.12 118.037 70.74 118.757 72.36C119.477 73.92 120.557 75.18 121.997 76.14C123.437 77.04 125.147 77.49 127.127 77.49C131.147 77.49 134.507 75.84 137.207 72.54C139.967 69.24 141.347 65.25 141.347 60.57C141.347 55.89 140.087 51.36 137.567 46.98C135.107 42.54 132.077 40.32 128.477 40.32C126.317 40.32 124.427 41.07 122.807 42.57C121.187 44.07 119.957 46.02 119.117 48.42ZM163.508 14.22C163.568 18.42 163.598 21.57 163.598 23.67C163.598 25.71 163.568 27.75 163.508 29.79C163.508 31.83 163.418 35.79 163.238 41.67C163.058 47.49 162.938 52.11 162.878 55.53C165.158 53.97 167.888 51.57 171.068 48.33C174.248 45.03 177.128 42.21 179.708 39.87C183.788 36.21 186.698 35.1 188.438 36.54C189.098 37.08 189.308 37.59 189.068 38.07C188.468 39.33 187.088 40.86 184.928 42.66C182.828 44.46 180.338 46.5 177.458 48.78C174.578 51.06 172.298 53.16 170.618 55.08C174.998 55.68 178.508 58.14 181.148 62.46C182.288 64.44 183.398 66.42 184.478 68.4C187.238 73.62 190.238 77.16 193.478 79.02C192.278 80.22 190.898 80.82 189.338 80.82C187.778 80.82 186.218 80.07 184.658 78.57C183.158 77.07 181.838 75.24 180.698 73.08C179.618 70.92 178.508 68.76 177.368 66.6C174.788 61.38 171.788 58.77 168.368 58.77C166.748 58.77 165.368 59.31 164.228 60.39C163.088 61.41 162.518 62.49 162.518 63.63C162.518 70.83 162.398 76.17 162.158 79.65C161.318 80.79 160.418 81.36 159.458 81.36C159.158 81.36 158.828 81.3 158.468 81.18C157.148 80.64 156.488 79.53 156.488 77.85C156.548 76.17 156.728 71.07 157.028 62.55C157.688 40.77 158.018 26.85 158.018 20.79C158.018 17.97 158.288 16.08 158.828 15.12C159.428 14.16 160.118 13.68 160.898 13.68C161.738 13.68 162.608 13.86 163.508 14.22ZM220.732 45C220.192 43.62 219.172 42.54 217.672 41.76C216.172 40.98 214.312 40.59 212.092 40.59C209.872 40.59 207.772 41.25 205.792 42.57C203.872 43.89 202.912 45.66 202.912 47.88C202.912 50.1 203.812 51.87 205.612 53.19C207.472 54.45 209.692 55.41 212.272 56.07C214.912 56.73 217.552 57.45 220.192 58.23C222.832 58.95 225.052 60.18 226.852 61.92C228.712 63.6 229.642 65.82 229.642 68.58C229.642 72.6 227.962 75.66 224.602 77.76C221.302 79.86 217.312 80.91 212.632 80.91C209.872 80.91 206.242 80.16 201.742 78.66C197.302 77.16 195.082 75.36 195.082 73.26C195.082 71.7 196.402 70.92 199.042 70.92C199.822 70.92 200.842 71.4 202.102 72.36C205.942 75.18 209.872 76.59 213.892 76.59C216.052 76.59 217.912 76.23 219.472 75.51C222.352 74.13 223.792 71.91 223.792 68.85C223.792 66.99 222.862 65.49 221.002 64.35C219.202 63.21 216.982 62.31 214.342 61.65C211.762 60.99 209.152 60.27 206.512 59.49C203.872 58.71 201.622 57.42 199.762 55.62C197.962 53.76 197.062 51.42 197.062 48.6C197.062 44.94 198.712 41.97 202.012 39.69C205.312 37.41 209.392 36.27 214.252 36.27C217.552 36.27 220.522 37.14 223.162 38.88C225.862 40.56 227.212 43.02 227.212 46.26C227.212 48.42 225.982 49.5 223.522 49.5C222.502 49.5 221.812 49.32 221.452 48.96C221.152 48.6 220.972 47.97 220.912 47.07C220.912 46.11 220.852 45.42 220.732 45ZM237.881 62.37L238.691 22.05C238.691 18.93 238.511 16.8 238.151 15.66C239.231 14.7 240.881 14.22 243.101 14.22C244.001 20.64 244.451 28.89 244.451 38.97C244.451 41.97 244.181 48.93 243.641 59.85C246.461 44.67 251.501 37.08 258.761 37.08C261.341 37.08 263.321 38.46 264.701 41.22C266.141 43.92 267.041 47.22 267.401 51.12C267.761 55.02 268.061 58.92 268.301 62.82C268.901 72.18 270.581 76.86 273.341 76.86C273.401 76.86 273.971 76.68 275.051 76.32C277.451 75.6 278.801 75.42 279.101 75.78C279.101 76.44 278.171 77.28 276.311 78.3C274.451 79.26 272.741 79.74 271.181 79.74C268.541 79.74 266.501 78.39 265.061 75.69C263.681 72.93 262.811 69.6 262.451 65.7C262.151 61.8 261.911 57.93 261.731 54.09C261.611 50.19 261.221 46.89 260.561 44.19C259.901 41.43 258.791 40.05 257.231 40.05C255.311 40.05 253.541 42.15 251.921 46.35C250.361 50.49 249.131 55.08 248.231 60.12C247.331 65.16 246.221 69.78 244.901 73.98C243.641 78.12 242.351 80.19 241.031 80.19C238.931 80.19 237.881 74.25 237.881 62.37ZM285.877 62.73C285.757 63.93 285.697 64.74 285.697 65.16C285.697 68.76 286.777 71.55 288.937 73.53C291.157 75.51 293.767 76.5 296.767 76.5C299.767 76.5 302.197 76.08 304.057 75.24C305.977 74.4 307.357 73.5 308.197 72.54C310.357 69.84 312.337 68.49 314.137 68.49C314.797 68.49 315.577 68.67 316.477 69.03C315.877 71.97 313.597 74.67 309.637 77.13C305.737 79.53 300.817 80.73 294.877 80.73C290.677 80.73 287.047 79.41 283.987 76.77C280.987 74.07 279.487 70.41 279.487 65.79C279.487 61.17 280.387 56.7 282.187 52.38C284.047 48 286.687 44.28 290.107 41.22C293.587 38.1 297.097 36.54 300.637 36.54C304.237 36.54 307.117 37.29 309.277 38.79C311.497 40.23 312.607 42.36 312.607 45.18C312.607 50.4 310.267 54.72 305.587 58.14C300.967 61.5 296.047 63.18 290.827 63.18C289.447 63.18 287.797 63.03 285.877 62.73ZM292.717 59.76C295.537 59.76 298.057 58.86 300.277 57.06C302.497 55.26 304.057 53.37 304.957 51.39C305.917 49.41 306.397 47.61 306.397 45.99C306.397 44.37 305.767 42.96 304.507 41.76C303.247 40.5 301.777 39.87 300.097 39.87C297.097 39.87 294.307 41.94 291.727 46.08C289.207 50.22 287.407 54.51 286.327 58.95C288.967 59.49 291.097 59.76 292.717 59.76ZM326.796 27.18C326.796 21.24 325.986 17.25 324.366 15.21C325.146 14.07 326.496 13.5 328.416 13.5C328.776 13.5 329.166 13.53 329.586 13.59C331.086 15.09 331.836 19.44 331.836 26.64C331.836 30.54 331.656 35.07 331.296 40.23C330.576 49.23 330.216 55.83 330.216 60.03C330.216 71.37 332.406 77.04 336.786 77.04C336.786 77.04 337.896 76.83 340.116 76.41C340.656 76.41 341.106 76.65 341.466 77.13C341.286 79.29 339.516 80.37 336.156 80.37C332.856 80.37 330.306 79.38 328.506 77.4C326.706 75.36 325.566 72.84 325.086 69.84C324.666 66.78 324.456 64.26 324.456 62.28C324.456 60.3 324.486 58.14 324.546 55.8C324.606 53.4 324.876 49.98 325.356 45.54C326.316 36.54 326.796 30.42 326.796 27.18ZM341.041 37.71C341.581 36.57 342.751 36 344.551 36C345.331 36 345.991 36.18 346.531 36.54C348.211 41.16 349.861 45.81 351.481 50.49C354.541 59.07 357.391 65.85 360.031 70.83C361.291 63.51 363.721 56.13 367.321 48.69C370.981 41.25 374.311 37.53 377.311 37.53C378.211 37.53 379.111 37.74 380.011 38.16C373.111 47.22 368.161 59.22 365.161 74.16C364.561 77.64 363.901 79.62 363.181 80.1C362.401 80.64 361.591 80.91 360.751 80.91C359.911 80.91 359.251 80.73 358.771 80.37C358.351 80.01 358.021 79.65 357.781 79.29C357.601 78.93 357.331 78.33 356.971 77.49C356.671 76.65 356.431 76.08 356.251 75.78C350.131 64.32 345.061 51.63 341.041 37.71ZM388.533 62.73C388.413 63.93 388.353 64.74 388.353 65.16C388.353 68.76 389.433 71.55 391.593 73.53C393.813 75.51 396.423 76.5 399.423 76.5C402.423 76.5 404.853 76.08 406.713 75.24C408.633 74.4 410.013 73.5 410.853 72.54C413.013 69.84 414.993 68.49 416.793 68.49C417.453 68.49 418.233 68.67 419.133 69.03C418.533 71.97 416.253 74.67 412.293 77.13C408.393 79.53 403.473 80.73 397.533 80.73C393.333 80.73 389.703 79.41 386.643 76.77C383.643 74.07 382.143 70.41 382.143 65.79C382.143 61.17 383.043 56.7 384.843 52.38C386.703 48 389.343 44.28 392.763 41.22C396.243 38.1 399.753 36.54 403.293 36.54C406.893 36.54 409.773 37.29 411.933 38.79C414.153 40.23 415.263 42.36 415.263 45.18C415.263 50.4 412.923 54.72 408.243 58.14C403.623 61.5 398.703 63.18 393.483 63.18C392.103 63.18 390.453 63.03 388.533 62.73ZM395.373 59.76C398.193 59.76 400.713 58.86 402.933 57.06C405.153 55.26 406.713 53.37 407.613 51.39C408.573 49.41 409.053 47.61 409.053 45.99C409.053 44.37 408.423 42.96 407.163 41.76C405.903 40.5 404.433 39.87 402.753 39.87C399.753 39.87 396.963 41.94 394.383 46.08C391.863 50.22 390.063 54.51 388.983 58.95C391.623 59.49 393.753 59.76 395.373 59.76ZM449.072 45C448.532 43.62 447.512 42.54 446.012 41.76C444.512 40.98 442.652 40.59 440.432 40.59C438.212 40.59 436.112 41.25 434.132 42.57C432.212 43.89 431.252 45.66 431.252 47.88C431.252 50.1 432.152 51.87 433.952 53.19C435.812 54.45 438.032 55.41 440.612 56.07C443.252 56.73 445.892 57.45 448.532 58.23C451.172 58.95 453.392 60.18 455.192 61.92C457.052 63.6 457.982 65.82 457.982 68.58C457.982 72.6 456.302 75.66 452.942 77.76C449.642 79.86 445.652 80.91 440.972 80.91C438.212 80.91 434.582 80.16 430.082 78.66C425.642 77.16 423.422 75.36 423.422 73.26C423.422 71.7 424.742 70.92 427.382 70.92C428.162 70.92 429.182 71.4 430.442 72.36C434.282 75.18 438.212 76.59 442.232 76.59C444.392 76.59 446.252 76.23 447.812 75.51C450.692 74.13 452.132 71.91 452.132 68.85C452.132 66.99 451.202 65.49 449.342 64.35C447.542 63.21 445.322 62.31 442.682 61.65C440.102 60.99 437.492 60.27 434.852 59.49C432.212 58.71 429.962 57.42 428.102 55.62C426.302 53.76 425.402 51.42 425.402 48.6C425.402 44.94 427.052 41.97 430.352 39.69C433.652 37.41 437.732 36.27 442.592 36.27C445.892 36.27 448.862 37.14 451.502 38.88C454.202 40.56 455.552 43.02 455.552 46.26C455.552 48.42 454.322 49.5 451.862 49.5C450.842 49.5 450.152 49.32 449.792 48.96C449.492 48.6 449.312 47.97 449.252 47.07C449.252 46.11 449.192 45.42 449.072 45Z" />
</svg>