<svg viewBox="0 0 256 256" fill="currentColor" xmlns="http://www.w3.org/2000/svg">
  <path
    d="M78.5116 43.5611C89.9751 67.5462 99.1459 87.4749 98.7931 88.004C97.9113 88.7095 53.9975 85.0059 45.8849 83.4186C41.8286 82.7132 45.0031 85.8877 60.5228 97.8802C71.2808 106.169 80.2752 113.753 80.2752 114.458C80.2752 115.164 76.2189 117.104 71.1045 119.044L61.9337 122.218L69.6936 125.745C74.1026 127.509 79.5698 129.802 81.8625 130.683C84.3315 131.741 85.3897 132.976 84.5079 133.858C83.6261 134.563 68.6354 146.556 51.1757 160.488C33.716 174.421 18.9017 186.237 18.0199 186.942C17.3144 187.472 35.4796 185.355 58.5829 182.181C81.5098 179.006 100.557 176.714 101.086 177.066C101.968 177.948 85.9188 251.843 84.3315 254.665C82.7443 257.31 86.8006 253.783 126.835 217.276C146.234 199.64 162.988 185.179 163.87 185.179C164.928 185.179 174.099 189.941 184.328 195.584C194.557 201.404 203.022 205.813 203.199 205.637C203.551 205.284 196.321 175.832 195.792 174.95C195.439 174.597 190.501 175.655 184.681 177.066C178.861 178.653 173.746 179.888 173.041 179.888C172.512 179.888 171.807 170.365 171.63 158.548L171.101 137.209L161.401 151.494C156.11 159.254 150.996 165.426 150.114 165.25C149.232 164.897 144.294 158.548 139.003 150.965L129.656 137.209V158.548C129.656 170.188 129.304 179.888 128.774 179.888C128.245 179.888 122.602 178.653 116.429 177.066L104.966 174.244V135.798V97.5275L115.724 94.5294C121.544 92.7657 127.364 91.8839 128.422 92.2367C129.656 92.5894 134.947 100.702 140.238 110.049C145.529 119.22 150.467 126.98 150.996 126.98C151.525 126.98 156.463 119.044 162.107 109.344C167.75 99.6438 173.217 91.7076 174.276 91.7076C175.334 91.7076 180.801 92.9421 186.268 94.5294L196.497 97.3511L197.026 112.871L197.555 128.391L207.96 116.045L218.366 103.524L210.253 104.582C205.668 105.287 201.964 105.111 201.964 104.229C201.964 103.347 210.253 88.004 220.482 70.3679C230.711 52.7318 239 37.9175 239 37.7412C239 37.3884 235.649 39.3284 231.593 42.1502C215.191 52.9082 169.867 81.3023 168.103 81.655C167.045 81.8314 161.225 66.6643 155.229 47.7937L144.294 13.7561L142.354 26.6304C141.296 33.8612 139.356 46.5592 138.298 55.0245C137.063 63.6662 135.476 70.5443 134.771 70.5443C134.242 70.5443 128.245 61.7262 121.72 51.1446C115.195 40.3866 109.728 31.7449 109.551 31.7449C109.375 31.7449 109.728 36.8594 110.257 43.2084C110.786 49.5573 110.786 54.6718 110.257 54.6718C109.728 54.6718 97.735 42.3266 83.8025 27.3359C69.87 12.3452 58.2301 -4.74323e-05 58.0538 -4.74323e-05C57.8774 -4.74323e-05 67.0482 19.576 78.5116 43.5611Z"
  />
</svg>