<svg viewBox="0 0 20 20" fill="currentColor" xmlns="http://www.w3.org/2000/svg">
    <path d="M14.1825 9.06502H5.8175V9.70197H14.1825V9.06502Z" />
    <path d="M13.0276 4.29951H6.97229V5.25491H13.0276V4.29951Z" />
    <path d="M12.7813 10.5195H5.8175V11.1565H12.7813V10.5195Z" />
    <path d="M14.1825 11.9741H5.8175V12.611H14.1825V11.9741Z" />
    <path d="M14.1825 13.4286H5.8175V14.0655H14.1825V13.4286Z" />
    <path d="M10.9979 14.8831H5.8175V15.5201H10.9979V14.8831Z" />
    <path fill-rule="evenodd" clip-rule="evenodd"
      d="M16.6993 1.27385C16.6993 0.573234 16.1261 0 15.4254 0H4.57451C3.87389 0 3.30066 0.573234 3.30066 1.27385V18.7262C3.30066 19.4268 3.87389 20 4.57451 20H15.4254C16.126 20 16.6992 19.4268 16.6992 18.7262V1.27385H16.6993ZM15.2717 2.31249H4.72826V16.847H15.2717V2.31249ZM8.22006 18.0255H11.7799V18.5669H8.22006V18.0255Z" />
</svg>