<svg width="715"
    height="612"
    viewBox="0 0 715 612"
    fill="none"
    xmlns="http://www.w3.org/2000/svg">
    <g clip-path="url(#clip0)">
        <path opacity="0.2"
            d="M151.4 0.0701155C143.34 -0.159884 135.08 0.0701077 127.52 2.39011C106.95 8.71011 97.2 29.3901 100.37 47.2601C103.54 65.1301 116.58 80.7001 130.11 94.9301C143.64 109.16 158.3 123.23 165.72 140.24C169.42 148.73 171.15 158.24 167.39 166.72C161.59 179.79 144.1 187.09 127.31 188.61C110.52 190.13 93.66 187.17 76.81 186.18C69.74 185.77 62.47 185.72 55.81 187.63C48.5 189.71 42.41 193.96 36.81 198.39C14.96 215.77 -2.52999 239.48 0.300007 264.39C3.50001 292.62 32.04 314.93 63.3 326.9C73.65 330.9 84.6 334.08 93.71 339.74C117.71 354.67 123.1 382.67 120.71 407.38C118.32 432.09 110.18 456.83 114.71 481.32C120.04 509.81 143.63 535.55 175.45 547.57C203.8 558.28 239.28 557.57 264.45 542.46C276.72 535.08 286 524.83 294.07 514.23C306.053 498.576 315.952 481.433 323.52 463.23C327.03 454.74 330.33 445.61 338.52 439.71C343.52 436.08 350 434.05 356.41 432.47C375.73 427.71 396.08 426.41 415.58 422.17C435.08 417.93 454.7 410 465.3 395.9C480.3 375.9 473.3 350.28 473.37 326.76C473.49 273.1 512.48 225.07 526.87 172.76C531.57 155.67 533.32 136.76 522.82 121.51C515.69 111.16 503.66 103.69 491.02 97.9201C463.21 85.2301 431.6 79.5801 400.51 74.0801C357.3 66.4401 304.83 65.4501 271.34 40.7301C239.2 17.0001 195.23 0.0701155 151.4 0.0701155Z"
            fill="#6C63FF"/>
        <path d="M410.5 612C578.671 612 715 556.259 715 487.5C715 418.741 578.671 363 410.5 363C242.329 363 106 418.741 106 487.5C106 556.259 242.329 612 410.5 612Z"
            fill="#334155"/>
        <path d="M484.736 251C484.736 251 488.583 226.445 466.927 224.212C445.27 221.978 442.267 177 442.267 177L441.718 177.841C417.726 214.976 426.433 250.502 458.268 245.097C470.136 243.133 482.034 243.296 484.736 251Z"
            fill="#6C63FF"/>
        <path opacity="0.2"
            d="M484.736 251C484.736 251 488.583 226.445 466.927 224.212C445.27 221.978 442.267 177 442.267 177L441.718 177.841C417.726 214.976 426.433 250.502 458.268 245.097C470.136 243.133 482.034 243.296 484.736 251Z"
            fill="#334155"/>
        <path d="M485 251C485 251 480.809 231.94 463.552 233.507C446.296 235.075 425.561 205.206 441.997 177"
            stroke="#535461"
            stroke-width="2"
            stroke-miterlimit="10"/>
        <path d="M498.41 157.65H285.48C280.308 157.645 275.344 159.694 271.682 163.347C268.02 167 265.958 171.957 265.95 177.13V472.13C265.958 477.303 268.02 482.26 271.682 485.913C275.344 489.566 280.308 491.615 285.48 491.61H498.41C503.583 491.615 508.546 489.566 512.208 485.913C515.87 482.26 517.932 477.303 517.94 472.13V177.13C517.932 171.957 515.87 167 512.208 163.347C508.546 159.694 503.583 157.645 498.41 157.65Z"
            fill="url(#paint0_linear)"/>
        <path d="M461 337H329V344H461V337Z"
            fill="#E6E6E6"/>
        <path d="M494.94 161.65H288.94C277.894 161.65 268.94 170.604 268.94 181.65V468.65C268.94 479.696 277.894 488.65 288.94 488.65H494.94C505.986 488.65 514.94 479.696 514.94 468.65V181.65C514.94 170.604 505.986 161.65 494.94 161.65Z"
            fill="#535461"/>
        <path d="M502.44 192.58H281.44V457.72H502.44V192.58Z"
            fill="#F1F5F9"/>
        <path d="M336.11 257.65H226.78C225.361 257.647 223.954 257.924 222.642 258.465C221.329 259.006 220.136 259.8 219.13 260.802C218.125 261.804 217.326 262.994 216.781 264.305C216.235 265.615 215.953 267.02 215.95 268.44V507.86C215.953 509.279 216.235 510.685 216.781 511.995C217.326 513.306 218.125 514.496 219.13 515.498C220.136 516.5 221.329 517.294 222.642 517.835C223.954 518.376 225.361 518.653 226.78 518.65H336.11C337.53 518.653 338.936 518.376 340.249 517.835C341.561 517.294 342.754 516.5 343.76 515.498C344.766 514.496 345.564 513.306 346.11 511.995C346.655 510.685 346.938 509.279 346.94 507.86V268.44C346.938 267.02 346.655 265.615 346.11 264.305C345.564 262.994 344.766 261.804 343.76 260.802C342.754 259.8 341.561 259.006 340.249 258.465C338.936 257.924 337.53 257.647 336.11 257.65V257.65Z"
            fill="url(#paint1_linear)"/>
        <path d="M268.44 272.65C268.992 272.65 269.44 272.202 269.44 271.65C269.44 271.098 268.992 270.65 268.44 270.65C267.888 270.65 267.44 271.098 267.44 271.65C267.44 272.202 267.888 272.65 268.44 272.65Z"
            fill="#F1F5F9"/>
        <path d="M294.44 270.65H274.44C273.888 270.65 273.44 271.098 273.44 271.65C273.44 272.202 273.888 272.65 274.44 272.65H294.44C294.992 272.65 295.44 272.202 295.44 271.65C295.44 271.098 294.992 270.65 294.44 270.65Z"
            fill="#F1F5F9"/>
        <path d="M280.94 510.65C284.806 510.65 287.94 507.516 287.94 503.65C287.94 499.784 284.806 496.65 280.94 496.65C277.074 496.65 273.94 499.784 273.94 503.65C273.94 507.516 277.074 510.65 280.94 510.65Z"
            fill="#F1F5F9"/>
        <path d="M203.73 536.25C203.73 536.25 190.47 491.25 206.22 458.11C212.925 444.257 214.953 428.603 212 413.5C210.54 406.345 208.428 399.339 205.69 392.57"
            stroke="#535461"
            stroke-width="2"
            stroke-miterlimit="10"/>
        <path d="M215.45 371.63C215.45 377.15 205.45 393.14 205.45 393.14C205.45 393.14 195.45 377.14 195.45 371.63C195.45 368.978 196.504 366.434 198.379 364.559C200.254 362.683 202.798 361.63 205.45 361.63C208.102 361.63 210.646 362.683 212.521 364.559C214.397 366.434 215.45 368.978 215.45 371.63Z"
            fill="#6C63FF"/>
        <path d="M232 402.19C229 406.82 211.92 414.82 211.92 414.82C211.92 414.82 212.23 395.96 215.23 391.33C215.912 390.164 216.824 389.147 217.91 388.343C218.996 387.538 220.234 386.962 221.549 386.65C222.863 386.337 224.228 386.294 225.56 386.524C226.892 386.753 228.163 387.25 229.298 387.985C230.432 388.719 231.406 389.676 232.16 390.798C232.914 391.919 233.433 393.182 233.686 394.51C233.939 395.837 233.919 397.203 233.63 398.523C233.34 399.843 232.785 401.09 232 402.19V402.19Z"
            fill="#6C63FF"/>
        <path d="M231.24 454.4C226.31 456.88 207.53 455.17 207.53 455.17C207.53 455.17 217.32 439.05 222.24 436.57C224.589 435.509 227.258 435.395 229.688 436.254C232.119 437.113 234.124 438.877 235.285 441.179C236.447 443.481 236.674 446.142 235.92 448.607C235.166 451.072 233.49 453.151 231.24 454.41V454.4Z"
            fill="#6C63FF"/>
        <path d="M221.8 493.79C217.36 497.07 198.56 498.55 198.56 498.55C198.56 498.55 205.48 481.01 209.92 477.73C212.056 476.305 214.659 475.756 217.189 476.198C219.719 476.639 221.982 478.037 223.509 480.102C225.037 482.166 225.711 484.74 225.393 487.288C225.075 489.836 223.788 492.165 221.8 493.79V493.79Z"
            fill="#6C63FF"/>
        <path d="M190.91 415.89C194.91 419.73 213.3 423.72 213.3 423.72C213.3 423.72 208.79 405.41 204.83 401.57C203.905 400.583 202.789 399.793 201.551 399.25C200.312 398.706 198.976 398.42 197.623 398.408C196.27 398.395 194.929 398.658 193.68 399.179C192.432 399.7 191.302 400.469 190.36 401.439C189.417 402.41 188.681 403.561 188.197 404.824C187.712 406.087 187.489 407.436 187.54 408.788C187.591 410.139 187.917 411.467 188.496 412.689C189.075 413.912 189.896 415.004 190.91 415.9V415.89Z"
            fill="#6C63FF"/>
        <path d="M180.45 462.09C185.38 464.57 204.16 462.86 204.16 462.86C204.16 462.86 194.37 446.74 189.45 444.26C188.272 443.601 186.974 443.187 185.632 443.044C184.29 442.9 182.934 443.029 181.643 443.424C180.353 443.818 179.156 444.47 178.124 445.339C177.092 446.209 176.247 447.278 175.639 448.483C175.031 449.687 174.674 451.003 174.588 452.349C174.502 453.696 174.689 455.046 175.138 456.318C175.588 457.59 176.29 458.758 177.203 459.752C178.116 460.746 179.22 461.544 180.45 462.1V462.09Z"
            fill="#6C63FF"/>
        <path d="M176.45 508.39C180.89 511.67 199.69 513.15 199.69 513.15C199.69 513.15 192.77 495.61 188.33 492.33C186.194 490.905 183.591 490.356 181.061 490.797C178.531 491.239 176.268 492.637 174.741 494.701C173.214 496.766 172.539 499.339 172.857 501.888C173.176 504.436 174.462 506.764 176.45 508.39Z"
            fill="#6C63FF"/>
        <path d="M487 199H294V218H487V199Z"
            fill="#6C63FF"/>
        <path d="M487 244H294V251H487V244Z"
            fill="#E6E6E6"/>
        <path d="M487 266H294V274H487V266Z"
            fill="#E6E6E6"/>
        <path d="M394 289H294V296H394V289Z"
            fill="#E6E6E6"/>
        <path d="M487 311H294V319H487V311Z"
            fill="#E6E6E6"/>
        <path d="M487 335H294V341H487V335Z"
            fill="#E6E6E6"/>
        <path d="M390 356H294V364H390V356Z"
            fill="#E6E6E6"/>
        <path d="M487 380H294V387H487V380Z"
            fill="#E6E6E6"/>
        <path d="M487 402H294V410H487V402Z"
            fill="#E6E6E6"/>
        <path d="M487 431H426V451H487V431Z"
            fill="#6C63FF"/>
        <path d="M334.94 259.65H227.94C221.865 259.65 216.94 264.575 216.94 270.65V506.65C216.94 512.725 221.865 517.65 227.94 517.65H334.94C341.015 517.65 345.94 512.725 345.94 506.65V270.65C345.94 264.575 341.015 259.65 334.94 259.65Z"
            fill="#535461"/>
        <path d="M336.44 283.65H226.44V493.65H336.44V283.65Z"
            fill="#F1F5F9"/>
        <path d="M333 287H230V303H333V287Z"
            fill="#6C63FF"/>
        <path d="M333 323H230V329H333V323Z"
            fill="#E6E6E6"/>
        <path d="M333 341H230V347H333V341Z"
            fill="#E6E6E6"/>
        <path d="M283 359H230V365H283V359Z"
            fill="#E6E6E6"/>
        <path d="M333 378H230V384H333V378Z"
            fill="#E6E6E6"/>
        <path d="M333 396H230V402H333V396Z"
            fill="#E6E6E6"/>
        <path d="M282 414H230V420H282V414Z"
            fill="#E6E6E6"/>
        <path d="M333 433H230V439H333V433Z"
            fill="#E6E6E6"/>
        <path d="M333 451H230V457H333V451Z"
            fill="#E6E6E6"/>
        <path d="M333 473H301V489H333V473Z"
            fill="#6C63FF"/>
        <path d="M651.18 197C651.18 197 615.35 232.83 635.58 286C655.81 339.17 600.9 427.59 600.9 427.59C600.9 427.59 601.49 427.5 602.58 427.31C676.17 414.31 712.74 330.15 671.82 267.62C656.61 244.38 644.12 217.14 651.18 197Z"
            fill="#6C63FF"/>
        <path d="M651.18 197C651.18 197 630.95 240.92 651.18 276.75C671.41 312.58 654.65 413.14 600.9 427.59"
            stroke="#535461"
            stroke-width="2"
            stroke-miterlimit="10"/>
        <path d="M715 341.93C715 341.93 674.11 335.42 670.39 372.06C666.67 408.7 591.77 413.78 591.77 413.78L593.17 414.71C655.01 455.3 714.17 440.57 705.17 386.71C701.9 366.63 702.17 346.5 715 341.93Z"
            fill="#6C63FF"/>
        <path opacity="0.2"
            d="M715 341.93C715 341.93 674.11 335.42 670.39 372.06C666.67 408.7 591.77 413.78 591.77 413.78L593.17 414.71C655.01 455.3 714.17 440.57 705.17 386.71C701.9 366.63 702.17 346.5 715 341.93Z"
            fill="#F5F5F5"/>
        <path d="M715 341.93C715 341.93 683.26 348.93 685.87 377.75C688.48 406.57 638.74 441.2 591.77 413.75"
            stroke="#535461"
            stroke-width="2"
            stroke-miterlimit="10"/>
        <path d="M689 403.24C677.93 389.81 664.52 374.38 666.4 356.51C667.92 342.04 664.28 328.66 665 314.14C666 293.51 661.86 277.36 647 264.14C638.32 256.41 623.81 250.34 619.49 251.89C610.93 254.95 601.59 253.78 592.78 255.89C586.09 257.45 581.64 259.89 578.88 262.89C573.33 267.89 573.24 274.89 575.77 282.34C573.562 286.384 572.229 290.847 571.858 295.439C571.487 300.032 572.087 304.651 573.617 308.996C575.148 313.342 577.575 317.317 580.742 320.664C583.909 324.01 587.745 326.653 592 328.42C585.83 331 580.5 336.94 578.42 349C576.974 357.282 574.789 365.418 571.89 373.31C570.587 373.919 569.251 374.457 567.89 374.92C568.19 375.04 568.5 375.12 568.8 375.23C568.15 375.48 567.51 375.73 566.8 375.95C567.982 376.412 569.204 376.767 570.45 377.01C562.45 397.22 552.45 409.74 552.45 409.74C552.45 409.74 533.8 413.86 526.55 406.65C526.55 406.65 527.73 408.03 529.33 410.1C522.24 407.16 510.6 402.36 500.65 398.41C493.43 395.54 491.58 398.41 491.65 402.41C489.888 402.631 488.188 403.202 486.65 404.09C484.517 402.718 482.28 401.514 479.96 400.49C475.82 399.49 462.35 392.25 448.88 416.96C441.04 431.33 420.94 457.56 405.49 476.96C375.44 490.78 336.32 508.28 321.78 512.68H312.46C311.24 510.68 310.39 509.42 310.39 509.42L309.67 509.9L309.36 509.42C309.36 509.42 291.06 522.09 272.48 522.19C269.837 522.154 267.207 521.818 264.64 521.19C256.1 519.04 250.08 518.08 245.78 518.19C240.69 518.1 237.78 519.31 236.02 521.59C235.783 521.889 235.566 522.203 235.37 522.53V522.53C235.173 522.854 234.993 523.188 234.83 523.53V523.53C234.67 523.89 234.51 524.27 234.37 524.66C234.312 525.008 234.334 525.364 234.435 525.702C234.535 526.04 234.711 526.35 234.95 526.61C235.199 526.96 235.469 527.294 235.76 527.61L236.28 528.17C238.62 530.59 242.88 533.8 248.18 537.38C249.71 538.38 251.33 539.48 253.02 540.57L256.23 542.57L259.1 544.36L260.25 545.07L261.53 545.85L263.82 547.24L265.18 548.06L267.75 549.59L269.83 550.82C275.27 554.03 280.69 557.14 285.58 559.9L289 561.94L289.33 562.12L291.53 563.35L295.33 565.46L297.94 566.9L299.16 567.57L300.47 568.29L300.73 568.43L303.01 569.67C303.479 569.749 303.959 569.725 304.419 569.601C304.878 569.477 305.304 569.255 305.67 568.95C306.33 566.15 307.94 560.15 309.67 559.69C311.4 559.23 318.89 546.14 321 537.38H341.22C345.203 537.04 349.158 536.432 353.06 535.56C347.84 539.28 342.67 541.62 338.65 540.62C330.15 538.51 322.1 543.69 321.29 548.8C321.29 548.91 321.22 549.01 321.19 549.12C321.16 549.23 321.14 549.33 321.12 549.43C321.1 549.53 321.06 549.68 321.04 549.81C321.02 549.94 321.04 550.02 321.04 550.13C321.04 550.24 321.04 550.38 321.04 550.51C321.04 550.64 321.04 550.72 321.04 550.82C321.04 550.92 321.04 551.08 321.04 551.21C321.04 551.34 321.04 551.41 321.04 551.51C321.04 551.61 321.1 551.78 321.14 551.92C321.18 552.06 321.14 552.1 321.21 552.18C321.273 552.361 321.346 552.538 321.43 552.71L321.48 552.84C321.592 553.059 321.719 553.269 321.86 553.47L322.02 553.68C322.12 553.82 322.23 553.96 322.35 554.09L322.58 554.32C322.7 554.44 322.83 554.56 322.96 554.68L323.24 554.91L323.69 555.24L324.02 555.46L324.56 555.78L324.92 555.97L325.6 556.29L325.94 556.44C326.3 556.59 326.68 556.73 327.09 556.86C327.74 557.07 328.51 557.29 329.38 557.51L330.25 557.72L331.52 558.01L332.19 558.16C333.056 558.347 333.976 558.533 334.95 558.72L336.3 558.97L337.4 559.17L339.93 559.61C341.51 559.88 343.16 560.15 344.93 560.41L349.29 561.07L354.97 561.88L356.23 562.05L358.23 562.33L361.16 562.72L363.16 562.98L368.35 563.64L369.97 563.84L373.24 564.24C377.54 564.76 381.7 565.24 385.53 565.67L389.96 566.17L392.2 566.42L393.2 566.52L395.88 566.81L397.37 566.97L399.21 567.16L401.8 567.43H402.08L403.74 567.6C403.948 567.622 404.158 567.601 404.357 567.538C404.557 567.474 404.741 567.37 404.898 567.232C405.055 567.094 405.181 566.925 405.27 566.735C405.358 566.545 405.405 566.339 405.41 566.13C405.41 566.08 405.41 566.02 405.41 565.96C405.562 565.728 405.646 565.458 405.65 565.18C405.693 562.714 406.005 560.259 406.58 557.86C406.69 557.45 406.82 557.03 406.96 556.61L407.12 556.13C407.3 555.62 407.48 555.13 407.69 554.58C407.84 554.207 407.971 553.827 408.08 553.44C408.08 553.32 408.15 553.2 408.19 553.07C408.23 552.94 408.29 552.66 408.33 552.45C410.41 545.34 407.9 532.08 407.18 526.87C406.949 525.206 406.567 523.566 406.04 521.97C406.169 521.983 406.3 521.983 406.43 521.97C407.504 521.575 408.514 521.026 409.43 520.34C424.71 514.89 437.59 508.66 441.66 502.42C448.251 500.68 455.252 501.413 461.34 504.48C469.25 508.41 529.09 527.94 556.95 536.96C561.95 541.27 565.87 543.79 568.04 543.6C568.04 543.6 603.51 549.34 617.77 538.14C619.04 539.02 619.84 539.49 619.84 539.49C619.84 539.49 640.56 529.2 643.67 515.81C644.67 511.47 645.58 505.07 646.51 497.99C651.316 493.147 654.019 486.604 654.03 479.78C654.68 457.3 663.39 431.62 669.85 408.78C677.69 409.4 680.72 407.92 687.91 404.37L687.59 403.96C688.1 403.66 688.55 403.46 689 403.24ZM570.21 436.91L566.21 435.58C567.551 433.789 568.707 431.866 569.66 429.84L570.21 436.91ZM547.92 446.37L571.92 460.77L572.13 463.7C571.837 465.93 571.905 468.192 572.33 470.4C561.75 461 549.37 449.59 547.91 446.36L547.92 446.37ZM538.12 425.37C535.5 424.29 533.33 423.31 531.84 422.5C533.84 422.64 535.74 422.76 537.4 422.85C537.728 423.662 537.969 424.507 538.12 425.37V425.37ZM473.84 448.84C473.84 448.84 477.98 439.58 487.31 455.02C488.76 457.42 491.43 461.24 494.96 465.97L467.8 462.34C471 457.38 473.15 452.77 473.84 448.85V448.84Z"
            fill="url(#paint2_linear)"/>
        <path d="M533.5 411.64C533.5 411.64 514.5 403.64 499.5 397.64C484.5 391.64 493.5 411.64 493.5 411.64C493.5 411.64 518.5 418.64 518.5 419.64C518.5 420.64 539.5 421.64 539.5 421.64L533.5 411.64Z"
            fill="#F7C4A7"/>
        <path opacity="0.05"
            d="M533.5 411.64C533.5 411.64 514.5 403.64 499.5 397.64C484.5 391.64 493.5 411.64 493.5 411.64C493.5 411.64 518.5 418.64 518.5 419.64C518.5 420.64 539.5 421.64 539.5 421.64L533.5 411.64Z"
            fill="black"/>
        <path d="M614.5 332.64C614.5 332.64 580.5 314.64 574.5 349.64C568.5 384.64 549.5 408.64 549.5 408.64C549.5 408.64 531.5 412.64 524.5 405.64C524.5 405.64 541.5 425.64 533.5 427.64C533.5 427.64 551.5 440.64 559.5 436.64C567.5 432.64 573.5 405.64 576.5 398.64C579.5 391.64 590.5 330.64 614.5 332.64Z"
            fill="#575988"/>
        <path opacity="0.1"
            d="M614.5 332.64C614.5 332.64 580.5 314.64 574.5 349.64C568.5 384.64 549.5 408.64 549.5 408.64C549.5 408.64 531.5 412.64 524.5 405.64C524.5 405.64 541.5 425.64 533.5 427.64C533.5 427.64 551.5 440.64 559.5 436.64C567.5 432.64 573.5 405.64 576.5 398.64C579.5 391.64 590.5 330.64 614.5 332.64Z"
            fill="black"/>
        <path d="M595.5 320.64C595.5 320.64 616.5 344.64 617.5 364.64C618.5 384.64 641.5 343.64 643.5 342.64C645.5 341.64 623.5 307.64 621.5 296.64C619.5 285.64 595.5 320.64 595.5 320.64Z"
            fill="#F7C4A7"/>
        <path d="M610 330.89L596.75 342.89L603 368.14L620 352.14L618 336.14L610 330.89Z"
            fill="#F7C4A7"/>
        <path d="M333.5 508.64H310.5L319.5 530.64L341.5 524.64L333.5 508.64Z"
            fill="#FBBEBE"/>
        <path opacity="0.1"
            d="M315.82 505.47C315.82 505.47 292 522.06 271.65 516.9C251.3 511.74 245.77 513.67 243.4 520.33C241.21 526.46 300.24 558.88 309.65 564C309.796 564.08 309.959 564.125 310.125 564.132C310.291 564.139 310.457 564.107 310.609 564.039C310.761 563.972 310.895 563.87 311.001 563.741C311.107 563.613 311.182 563.462 311.22 563.3C311.86 560.58 313.41 554.75 315.07 554.3C317.23 553.72 327.07 535.3 326.53 528.06C325.99 520.82 315.82 505.47 315.82 505.47Z"
            fill="black"/>
        <path d="M314.82 505.47C314.82 505.47 291 522.06 270.65 516.9C250.3 511.74 244.77 513.67 242.4 520.33C240.21 526.46 299.24 558.88 308.65 564C308.796 564.08 308.959 564.125 309.125 564.132C309.291 564.139 309.457 564.107 309.609 564.039C309.761 563.972 309.895 563.87 310.001 563.741C310.107 563.613 310.182 563.462 310.22 563.3C310.86 560.58 312.41 554.75 314.07 554.3C316.23 553.72 326.07 535.3 325.53 528.06C324.99 520.82 314.82 505.47 314.82 505.47Z"
            fill="#F3B5B7"/>
        <path d="M511.5 465.64L444.5 456.64C444.5 456.64 335.5 508.64 322.5 509.64L325.5 532.64H345.5C353.5 532.64 431.5 515.64 442.5 498.64C448.864 496.948 455.628 497.66 461.5 500.64C471.5 505.64 567.5 536.64 567.5 536.64L511.5 465.64Z"
            fill="#575988"/>
        <path opacity="0.1"
            d="M511.5 465.64L444.5 456.64C444.5 456.64 335.5 508.64 322.5 509.64L325.5 532.64H345.5C353.5 532.64 431.5 515.64 442.5 498.64C448.864 496.948 455.628 497.66 461.5 500.64C471.5 505.64 567.5 536.64 567.5 536.64L511.5 465.64Z"
            fill="black"/>
        <path d="M392.5 496.64L381.5 510.64L392.5 516.64L408.5 504.64L392.5 496.64Z"
            fill="#FBBEBE"/>
        <path d="M583.5 480.64C583.5 480.64 547.5 449.82 545.01 444.23C542.52 438.64 483.5 400.64 479.5 399.64C475.5 398.64 462.5 391.64 449.5 415.64C436.5 439.64 388.5 497.64 388.5 497.64C388.5 497.64 403.5 518.64 408.5 517.64C413.5 516.64 469.5 469.64 473.5 446.64C473.5 446.64 477.5 437.64 486.5 452.64C495.5 467.64 553.5 539.64 564.5 538.64C564.5 538.64 607.5 545.64 616.5 528.64C625.5 511.64 583.5 480.64 583.5 480.64Z"
            fill="#575988"/>
        <path d="M604 334.14C604 334.14 591.5 339.64 590.5 362.64C589.5 385.64 567.5 424.64 567.5 424.64L569.5 470.64C569.5 470.64 593.5 494.64 595.5 509.64C597.5 524.64 614.5 534.64 614.5 534.64C614.5 534.64 634.5 524.64 637.5 511.64C640.5 498.64 642.5 466.64 647.5 454.64C652.5 442.64 649.5 367.64 649.5 367.64L634.5 341.64L626.5 332.64L605.5 356.64C605.5 356.64 594 341.14 604 334.14Z"
            fill="#DDDBE2"/>
        <path opacity="0.1"
            d="M574.5 455.64C574.5 455.64 571.5 419.64 580.5 411.64L598.5 360.64C598.5 360.64 605 336.14 604 334.14C603 332.14 580.5 353.64 580.5 353.64L565.5 406.64L569.5 462.64L574.5 455.64Z"
            fill="black"/>
        <path d="M573.5 455.64C573.5 455.64 570.5 419.64 579.5 411.64L597.5 360.64C597.5 360.64 604.5 335.64 603.5 333.64C602.5 331.64 579.5 353.64 579.5 353.64L564.5 406.64L568.5 462.64L573.5 455.64Z"
            fill="#575988"/>
        <path d="M580.5 439.64C580.5 439.64 530.5 423.64 527.5 419.64C524.5 415.64 492.5 389.64 481.5 407.64C470.5 425.64 522.5 430.64 522.5 430.64L575.5 462.64L580.5 439.64Z"
            fill="#FBBEBE"/>
        <path opacity="0.1"
            d="M394.67 510.55L379.87 507.89C379.87 507.89 355.63 538.94 343 535.79C330.37 532.64 318.75 546.23 332.09 550.59C344.14 554.53 396.18 560.04 406.09 561.06C406.291 561.081 406.493 561.06 406.685 560.998C406.878 560.937 407.055 560.836 407.206 560.703C407.357 560.569 407.479 560.406 407.564 560.223C407.649 560.04 407.695 559.842 407.7 559.64C407.776 555.775 408.555 551.956 410 548.37C412.67 541.82 410 527.75 409.26 522.37C408.852 519.217 407.866 516.165 406.35 513.37L394.67 510.55Z"
            fill="black"/>
        <path d="M394.42 511.52L379.62 508.86C379.62 508.86 355.38 539.91 342.77 536.77C330.16 533.63 318.52 547.21 331.86 551.57C343.91 555.51 395.95 561.02 405.86 562.04C406.06 562.061 406.263 562.04 406.455 561.978C406.647 561.917 406.825 561.816 406.976 561.683C407.127 561.549 407.249 561.386 407.334 561.203C407.419 561.02 407.465 560.822 407.47 560.62C407.518 556.764 408.267 552.948 409.68 549.36C412.35 542.81 409.68 528.74 408.94 523.36C408.532 520.206 407.546 517.155 406.03 514.36L394.42 511.52Z"
            fill="#F3B5B7"/>
        <path opacity="0.1"
            d="M603 332.14C620.673 332.14 635 317.813 635 300.14C635 282.467 620.673 268.14 603 268.14C585.327 268.14 571 282.467 571 300.14C571 317.813 585.327 332.14 603 332.14Z"
            fill="black"/>
        <path d="M600 332.14C617.673 332.14 632 317.813 632 300.14C632 282.467 617.673 268.14 600 268.14C582.327 268.14 568 282.467 568 300.14C568 317.813 582.327 332.14 600 332.14Z"
            fill="#FBBEBE"/>
        <path d="M631.5 331.64C631.5 331.64 669.5 344.64 669.5 371.64C669.5 398.64 648.5 441.64 647.5 476.64C646.5 511.64 591.5 506.64 591.5 506.64C591.5 506.64 583.5 388.64 591.5 379.64C599.5 370.64 635.5 335.64 631.5 331.64Z"
            fill="#575988"/>
        <path opacity="0.1"
            d="M624.5 387.64C624.5 387.64 610.5 449.64 577.5 438.64C577.5 438.64 560.5 463.64 572.5 474.64C572.5 474.64 601.5 481.64 620.5 462.64C639.5 443.64 653.5 436.64 656.5 413.64C659.5 390.64 661.5 358.64 651.5 361.64C641.5 364.64 624.5 387.64 624.5 387.64Z"
            fill="black"/>
        <path d="M625.5 386.64C625.5 386.64 611.5 448.64 578.5 437.64C578.5 437.64 561.5 462.64 573.5 473.64C573.5 473.64 602.5 480.64 621.5 461.64C640.5 442.64 654.5 435.64 657.5 412.64C660.5 389.64 662.5 357.64 652.5 360.64C642.5 363.64 625.5 386.64 625.5 386.64Z"
            fill="#575988"/>
        <path d="M410.54 546.14C410.54 546.23 410.48 546.34 410.45 546.42C409.761 548.13 409.236 549.901 408.88 551.71C409.12 550.93 409.4 550.13 409.72 549.33C410.113 548.301 410.388 547.231 410.54 546.14Z"
            fill="#DDDBE2"/>
        <path d="M332.59 548.65C328.47 547.3 326.74 545.08 326.67 542.74C324.97 546 326.04 549.66 331.86 551.56C343.91 555.5 395.96 561.01 405.86 562.03C406.062 562.051 406.265 562.03 406.458 561.968C406.651 561.906 406.828 561.804 406.98 561.67C407.131 561.535 407.253 561.371 407.337 561.186C407.422 561.002 407.467 560.803 407.47 560.6V560.6C407.477 560.233 407.347 559.877 407.104 559.601C406.862 559.325 406.525 559.15 406.16 559.11C395.3 557.95 344.48 552.53 332.59 548.65Z"
            fill="#DDDBE2"/>
        <path d="M243.78 518.57C244.045 517.833 244.38 517.123 244.78 516.45C243.703 517.541 242.897 518.87 242.43 520.33C240.24 526.46 299.27 558.88 308.68 564C308.827 564.08 308.99 564.125 309.157 564.131C309.323 564.137 309.49 564.105 309.642 564.036C309.794 563.967 309.928 563.864 310.033 563.734C310.139 563.605 310.213 563.453 310.25 563.29V563.29C310.306 563.06 310.284 562.817 310.188 562.601C310.092 562.384 309.928 562.204 309.72 562.09C299.32 556.4 241.62 524.63 243.78 518.57Z"
            fill="#DDDBE2"/>
        <path d="M315.44 552.55C314.91 552.69 314.39 553.4 313.9 554.37L314.06 554.31C314.5 554.19 315.25 553.31 316.16 552.01C315.965 552.244 315.719 552.429 315.44 552.55V552.55Z"
            fill="#DDDBE2"/>
        <path opacity="0.1"
            d="M595.56 328.31C592.74 334.53 592.15 341.54 590.08 348.06C585.97 360.99 575.66 371.69 563.31 375.82C573.7 379.96 585.96 374.9 593.99 366.5C602.02 358.1 606.73 346.92 611.24 336.04C622.9 343.88 621.48 361.9 625.4 375.93C627.082 382.034 630.055 387.706 634.118 392.562C638.181 397.419 643.239 401.347 648.95 404.08C654.642 406.634 660.83 407.893 667.067 407.767C673.304 407.641 679.436 406.132 685.02 403.35C674.33 390.35 659.11 372.42 660.92 355.06C662.39 341 652.3 330.26 652.99 316.15C653.99 296.15 646.33 285.99 631.99 273.15C623.61 265.64 636.8 255.05 625.99 258.15C621.74 259.37 617.26 254.82 613.09 256.32C604.83 259.32 595.81 258.16 587.31 260.16C543.13 270.54 599.68 319.23 595.56 328.31Z"
            fill="black"/>
        <path d="M596.56 327.31C593.74 333.53 593.15 340.54 591.08 347.06C586.97 359.99 576.66 370.69 564.31 374.82C574.7 378.96 586.96 373.9 594.99 365.5C603.02 357.1 607.73 345.92 612.24 335.04C623.9 342.88 622.48 360.9 626.4 374.93C628.082 381.034 631.055 386.706 635.118 391.562C639.181 396.419 644.239 400.346 649.95 403.08C655.642 405.634 661.83 406.893 668.067 406.767C674.304 406.641 680.436 405.132 686.02 402.35C675.33 389.35 661.11 374.42 662.92 357.06C664.39 343 662.2 328.55 662.92 314.45C663.92 294.45 654.11 275.13 639.76 262.29C631.38 254.78 618.29 253.82 614.11 255.29C605.85 258.29 596.83 257.13 588.33 259.13C544.13 269.54 600.68 318.23 596.56 327.31Z"
            fill="#553538"/>
    </g>
    <defs>
        <linearGradient id="paint0_linear"
            x1="119694"
            y1="212439"
            x2="119694"
            y2="100897"
            gradientUnits="userSpaceOnUse">
            <stop stop-color="#808080"
                stop-opacity="0.25"/>
            <stop offset="0.54"
                stop-color="#808080"
                stop-opacity="0.12"/>
            <stop offset="1"
                stop-color="#808080"
                stop-opacity="0.1"/>
        </linearGradient>
        <linearGradient id="paint1_linear"
            x1="47823"
            y1="173209"
            x2="47823"
            y2="105088"
            gradientUnits="userSpaceOnUse">
            <stop stop-color="#808080"
                stop-opacity="0.25"/>
            <stop offset="0.54"
                stop-color="#808080"
                stop-opacity="0.12"/>
            <stop offset="1"
                stop-color="#808080"
                stop-opacity="0.1"/>
        </linearGradient>
        <linearGradient id="paint2_linear"
            x1="386551"
            y1="224064"
            x2="386551"
            y2="122867"
            gradientUnits="userSpaceOnUse">
            <stop stop-color="#808080"
                stop-opacity="0.25"/>
            <stop offset="0.54"
                stop-color="#808080"
                stop-opacity="0.12"/>
            <stop offset="1"
                stop-color="#808080"
                stop-opacity="0.1"/>
        </linearGradient>
        <clipPath id="clip0">
            <rect width="715"
                height="612"
                fill="#F1F5F9"/>
        </clipPath>
    </defs>
</svg>