<svg width="256" height="49" viewBox="0 0 256 49" fill="none" xmlns="http://www.w3.org/2000/svg">
<g clip-path="url(#clip0_125_14)">
<path d="M11.1431 0.967041V25.344C11.1431 29.2106 12.0775 32.2487 13.9463 34.4584C15.815 36.668 18.572 37.7731 22.2171 37.7736C25.8622 37.7736 28.607 36.6685 30.4517 34.4584C32.2963 32.2482 33.219 29.2101 33.2198 25.344V0.967041H44.3649V25.9647C44.3649 32.687 42.4259 38.0728 38.5478 42.1221C34.6225 46.1739 29.1789 48.1999 22.2171 48.1999C15.2537 48.1999 9.81017 46.1739 5.88637 42.1221C1.96263 38.0733 0.000508585 32.6875 0 25.9647V0.967041H11.1431Z" fill="#595AD4"/>
<path d="M55.2084 3.86801C58.2917 1.28934 62.3801 0 67.4737 0C72.8932 0 77.9863 0.943898 82.7531 2.83169V12.5681C77.5189 10.4518 72.6125 9.39291 68.034 9.39146C63.5948 9.39146 61.3756 10.6808 61.3764 13.2595C61.3764 14.5019 61.8785 15.4458 62.8826 16.0912C63.8868 16.7366 65.5808 17.4038 67.9647 18.093L71.8881 19.1971C80.8592 21.6839 85.3448 26.2875 85.3448 33.0078C85.3448 37.7509 83.6513 41.4683 80.2642 44.1599C76.8752 46.8531 72.261 48.1997 66.4218 48.1997C61.2878 48.2182 56.1974 47.2571 51.4235 45.368V35.4942C56.6562 37.6119 61.6324 38.6703 66.352 38.6694C68.9683 38.6694 70.9661 38.2557 72.3454 37.4283C73.7221 36.5984 74.4109 35.424 74.4119 33.9052C74.4119 32.6174 73.945 31.662 73.0111 31.039C72.0758 30.4184 70.3702 29.7627 67.8944 29.0719L63.689 27.9662C54.9043 25.5278 50.5119 20.9479 50.5119 14.2265C50.5119 9.89907 52.0774 6.44624 55.2084 3.86801" fill="#595AD4"/>
<path d="M101.646 10.1824V18.7709H123.97V28.5661H101.646V38.3626H124.943V48.1622H91.7695V0.595703H124.943V10.1829L101.646 10.1824Z" fill="#595AD4"/>
<path d="M182.235 48.2435H215.891V38.509H182.235V48.2435ZM182.235 10.5029H215.891V0.980957H182.235V10.5029ZM214.904 19.0387H182.235V28.7736H214.904V19.0387Z" fill="#595AD4"/>
<path d="M222.875 0.980957H236.166C241.425 0.980957 245.562 2.12164 248.578 4.40301C251.594 6.68438 253.102 9.77621 253.101 13.6785C253.101 17.4878 251.557 20.5209 248.469 22.7777C253.486 25.272 255.995 29.1285 255.996 34.3472C255.996 38.4396 254.5 41.7789 251.508 44.3652C248.517 46.9514 244.416 48.2442 239.206 48.2435H222.875V0.980957ZM233.948 10.5743V19.7458H235.733C237.71 19.7458 239.218 19.3341 240.255 18.5107C241.292 17.6883 241.81 16.5717 241.811 15.1608C241.812 13.7499 241.306 12.6328 240.291 11.8094C239.278 10.987 237.758 10.5753 235.732 10.5743H233.948ZM233.948 28.9865V38.5798H238.773C240.606 38.5798 242.041 38.145 243.079 37.2754C244.115 36.4063 244.634 35.2425 244.635 33.7839C244.635 32.3726 244.116 31.2203 243.079 30.3271C242.042 29.4339 240.606 28.987 238.772 28.9863L233.948 28.9865Z" fill="#595AD4"/>
<path d="M175.236 1.03955V26.4348C175.236 32.5757 173.676 37.6191 170.555 41.565C170.207 42.0119 169.833 42.4326 169.449 42.8544C166.928 45.5054 163.78 47.3023 160.005 48.2452L153.599 30.3932C153.573 30.3199 153.524 30.2563 153.461 30.2113C153.397 30.1663 153.321 30.1419 153.244 30.1416C153.166 30.1413 153.09 30.165 153.026 30.2094C152.962 30.2539 152.913 30.317 152.886 30.3902L146.34 48.2317C142.597 47.2843 139.472 45.4919 136.964 42.8544C136.544 42.4153 136.148 41.9537 135.778 41.4716C132.663 37.5449 131.106 32.5326 131.106 26.4348V1.03955H142.237V25.8039C142.237 26.6247 142.141 27.396 142.237 28.1296L148.453 15.1824C148.885 14.2771 149.564 13.5127 150.412 12.9781C151.261 12.4435 152.243 12.1606 153.246 12.1624C154.249 12.1641 155.231 12.4504 156.077 12.9879C156.924 13.5254 157.601 14.2922 158.029 15.199L164.185 28.1391C164.173 27.9704 164.152 1.04031 164.152 1.04031L175.236 1.03955Z" fill="#595AD4"/>
</g>
<defs>
<clipPath id="clip0_125_14">
<rect width="256" height="48.2793" fill="white"/>
</clipPath>
</defs>
</svg>
