<svg
  xmlns="http://www.w3.org/2000/svg"
  xmlns:xlink="http://www.w3.org/1999/xlink"
  width="1340.066"
  height="945.45"
  viewBox="0 0 1340.066 945.45"
>
  <defs>
    <clipPath id="clip-path">
      <rect
        id="Rectangle_2796"
        data-name="Rectangle 2796"
        width="1340.066"
        height="945.45"
        fill="#595ad4"
      />
    </clipPath>
  </defs>
  <g id="Groupe_19841" data-name="Groupe 19841" transform="translate(0 0)">
    <g
      id="Groupe_17662"
      data-name="Groupe 17662"
      transform="translate(0 0)"
      clip-path="url(#clip-path)"
    >
      <path
        id="Tracé_9747"
        data-name="Tracé 9747"
        d="M102.247.642V224.32q0,53.218,25.721,83.631t75.891,30.42q50.17,0,75.559-30.42t25.4-83.631V.642H407.083V230.015q0,92.524-53.377,148.257Q299.68,434.04,203.859,434.04q-95.841,0-149.847-55.768Q.007,322.546,0,230.015V.642Z"
        transform="translate(0 8.225)"
        fill="#595ad4"
      />
      <path
        id="Tracé_9748"
        data-name="Tracé 9748"
        d="M76.629,35.492Q119.066,0,189.173,0q74.592,0,140.2,25.983v89.339Q257.331,86.194,194.314,86.174q-61.1,0-61.089,35.492,0,17.1,13.821,25.983t46.632,18.368l36,10.131q123.476,34.228,123.476,126.724,0,65.283-46.618,102.33-46.646,37.068-127.015,37.068A370.39,370.39,0,0,1,41.9,416.287v-90.6q72.021,29.148,136.98,29.135,36.011,0,54.994-11.388,18.949-11.423,18.962-32.327,0-17.725-12.853-26.3-12.874-8.541-46.95-18.05l-38.588-10.145Q33.535,223.05,33.535,130.539q0-59.561,43.094-95.047"
        transform="translate(429.951 -0.006)"
        fill="#595ad4"
      />
      <path
        id="Tracé_9749"
        data-name="Tracé 9749"
        d="M33.945,470.7H342.761V381.378H33.945Zm0-346.3H342.761V37.029H33.945Zm299.763,78.323H33.945v89.325H333.708Z"
        transform="translate(435.207 474.742)"
        fill="#595ad4"
      />
      <path
        id="Tracé_9750"
        data-name="Tracé 9750"
        d="M60.926,37.029H182.882q72.374,0,113.885,31.4t41.5,85.11q0,52.43-42.5,83.492,69.056,34.331,69.063,106.159,0,56.327-41.173,91.923T210.773,470.7H60.926Zm101.6,88.026v84.156H178.9q27.22,0,41.5-11.333,14.263-11.319,14.277-30.738t-13.945-30.752q-13.952-11.319-41.836-11.333Zm0,168.947v88.026h44.269q25.23,0,39.514-11.969,14.263-11.962,14.277-32.037,0-19.425-14.277-31.719T206.793,294Z"
        transform="translate(781.13 474.742)"
        fill="#595ad4"
      />
      <path
        id="Tracé_9751"
        data-name="Tracé 9751"
        d="M216.272,121.606A64.309,64.309,0,1,1,151.963,57.3a64.305,64.305,0,0,1,64.309,64.309"
        transform="translate(1123.808 734.597)"
        fill="#595ad4"
      />
      <path
        id="Tracé_9752"
        data-name="Tracé 9752"
        d="M151.55,88.365v78.807h204.84V257.05H151.55v89.891H365.319v89.919H60.926V.4H365.319v87.97Z"
        transform="translate(781.131 5.06)"
        fill="#595ad4"
      />
      <path
        id="Tracé_9753"
        data-name="Tracé 9753"
        d="M404.927,37.068V270.089q0,84.522-42.956,138.832c-3.193,4.1-6.62,7.961-10.145,11.831q-34.7,36.487-86.657,49.465L206.388,306.411a3.475,3.475,0,0,0-6.537-.028L139.785,470.093q-51.518-13.04-86.035-49.341a153.836,153.836,0,0,1-10.877-12.688Q0,354.017,0,270.089V37.068H102.137V264.3c0,7.532-.885,14.609,0,21.34l57.039-118.8a48.619,48.619,0,0,1,87.86.152l56.486,118.736c-.111-1.548-.3-248.653-.3-248.653Z"
        transform="translate(0 475.242)"
        fill="#595ad4"
      />
    </g>
  </g>
</svg>
