<svg xmlns="http://www.w3.org/2000/svg" xmlns:xlink="http://www.w3.org/1999/xlink" aria-hidden="true" role="img" class="iconify iconify--ri" width="32" height="32" preserveAspectRatio="xMidYMid meet" viewBox="0 0 24 24"><path fill="currentColor" d="m15.243 4.515l-6.738 6.737l-.707 2.121l-1.04 1.041l2.828 2.829l1.04-1.041l2.122-.707l6.737-6.738l-4.242-4.242zm6.364 3.535a1 1 0 0 1 0 1.414l-7.779 7.779l-2.12.707l-1.415 1.414a1 1 0 0 1-1.414 0l-4.243-4.243a1 1 0 0 1 0-1.414l1.414-1.414l.707-2.121l7.779-7.779a1 1 0 0 1 1.414 0l5.657 5.657zm-6.364-.707l1.414 1.414l-4.95 4.95l-1.414-1.414l4.95-4.95zM4.283 16.89l2.828 2.829l-1.414 1.414l-4.243-1.414l2.828-2.829z"></path></svg>