<svg viewBox="0 0 500 500" xmlns="http://www.w3.org/2000/svg">
    <path
        d="M250 0C111.875 0 0 111.875 0 250C0 360.625 71.5625 454.063 170.937 487.188C183.437 489.375 188.125 481.875 188.125 475.313C188.125 469.375 187.813 449.688 187.813 428.75C125 440.313 108.75 413.437 103.75 399.375C100.937 392.187 88.75 370 78.125 364.062C69.375 359.375 56.875 347.812 77.8125 347.5C97.5 347.187 111.563 365.625 116.25 373.125C138.75 410.937 174.688 400.313 189.063 393.75C191.25 377.5 197.812 366.562 205 360.312C149.375 354.062 91.25 332.5 91.25 236.875C91.25 209.687 100.938 187.187 116.875 169.687C114.375 163.437 105.625 137.812 119.375 103.437C119.375 103.437 140.313 96.875 188.125 129.063C208.125 123.438 229.375 120.625 250.625 120.625C271.875 120.625 293.125 123.438 313.125 129.063C360.938 96.5625 381.875 103.437 381.875 103.437C395.625 137.812 386.875 163.437 384.375 169.687C400.313 187.187 410 209.375 410 236.875C410 332.812 351.563 354.062 295.938 360.312C305 368.125 312.813 383.125 312.813 406.563C312.813 440 312.5 466.875 312.5 475.313C312.5 481.875 317.188 489.688 329.688 487.188C428.438 454.063 500 360.312 500 250C500 111.875 388.125 0 250 0Z"
    />
</svg>
