<svg viewBox="0 0 20 20" fill="currentColor" xmlns="http://www.w3.org/2000/svg">
  <path
    d="M14.182 9.065H5.818v.637h8.364v-.637ZM13.028 4.3H6.972v.955h6.056V4.3ZM12.781 10.52H5.817v.636h6.964v-.636ZM14.182 11.974H5.818v.637h8.364v-.637ZM14.182 13.429H5.818v.636h8.364v-.636ZM10.998 14.883h-5.18v.637h5.18v-.637Z"
  ></path>
  <path
    fillRule="evenodd"
    clipRule="evenodd"
    d="M16.7 1.274C16.7.574 16.125 0 15.424 0H4.575C3.874 0 3.3.573 3.3 1.274v17.452c0 .7.573 1.274 1.274 1.274h10.85c.701 0 1.274-.573 1.274-1.274V1.274Zm-1.428 1.038H4.728v14.535h10.544V2.312ZM8.22 18.025h3.56v.542H8.22v-.541Z"
  ></path>
</svg>
